<svg xmlns="http://www.w3.org/2000/svg" viewBox="0 0 800 400">
<rect width="800" height="400" fill="white"/>
<text x="400" y="30" text-anchor="middle" font-size="16" font-weight="bold">活跃仓库 & AI Log 趋势</text>
<line x1="60" y1="320.0" x2="650" y2="320.0" stroke="#e5e7eb" stroke-width="1"/>
<text x="50" y="324.0" text-anchor="end" font-size="11" fill="#6b7280">0</text>
<line x1="60" y1="252.5" x2="650" y2="252.5" stroke="#e5e7eb" stroke-width="1"/>
<text x="50" y="256.5" text-anchor="end" font-size="11" fill="#6b7280">51</text>
<line x1="60" y1="185.0" x2="650" y2="185.0" stroke="#e5e7eb" stroke-width="1"/>
<text x="50" y="189.0" text-anchor="end" font-size="11" fill="#6b7280">103</text>
<line x1="60" y1="117.5" x2="650" y2="117.5" stroke="#e5e7eb" stroke-width="1"/>
<text x="50" y="121.5" text-anchor="end" font-size="11" fill="#6b7280">155</text>
<line x1="60" y1="50.0" x2="650" y2="50.0" stroke="#e5e7eb" stroke-width="1"/>
<text x="50" y="54.0" text-anchor="end" font-size="11" fill="#6b7280">207</text>
<text x="60.0" y="340" text-anchor="middle" font-size="10" fill="#6b7280" transform="rotate(-45 60.0 340)">2026-07-17</text>
<text x="74.04761904761905" y="340" text-anchor="middle" font-size="10" fill="#6b7280" transform="rotate(-45 74.04761904761905 340)">2026-07-20</text>
<text x="88.0952380952381" y="340" text-anchor="middle" font-size="10" fill="#6b7280" transform="rotate(-45 88.0952380952381 340)">2026-07-21</text>
<text x="102.14285714285714" y="340" text-anchor="middle" font-size="10" fill="#6b7280" transform="rotate(-45 102.14285714285714 340)">2026-07-22</text>
<text x="116.19047619047619" y="340" text-anchor="middle" font-size="10" fill="#6b7280" transform="rotate(-45 116.19047619047619 340)">2026-07-23</text>
<text x="130.23809523809524" y="340" text-anchor="middle" font-size="10" fill="#6b7280" transform="rotate(-45 130.23809523809524 340)">2026-07-27</text>
<text x="144.28571428571428" y="340" text-anchor="middle" font-size="10" fill="#6b7280" transform="rotate(-45 144.28571428571428 340)">2026-07-28</text>
<text x="158.33333333333331" y="340" text-anchor="middle" font-size="10" fill="#6b7280" transform="rotate(-45 158.33333333333331 340)">2026-07-29</text>
<text x="172.38095238095238" y="340" text-anchor="middle" font-size="10" fill="#6b7280" transform="rotate(-45 172.38095238095238 340)">2026-07-30</text>
<text x="186.42857142857142" y="340" text-anchor="middle" font-size="10" fill="#6b7280" transform="rotate(-45 186.42857142857142 340)">2026-07-31</text>
<text x="200.47619047619048" y="340" text-anchor="middle" font-size="10" fill="#6b7280" transform="rotate(-45 200.47619047619048 340)">2026-08-03</text>
<text x="214.52380952380952" y="340" text-anchor="middle" font-size="10" fill="#6b7280" transform="rotate(-45 214.52380952380952 340)">2026-08-05</text>
<text x="228.57142857142856" y="340" text-anchor="middle" font-size="10" fill="#6b7280" transform="rotate(-45 228.57142857142856 340)">2026-08-06</text>
<text x="242.61904761904762" y="340" text-anchor="middle" font-size="10" fill="#6b7280" transform="rotate(-45 242.61904761904762 340)">2026-08-10</text>
<text x="256.66666666666663" y="340" text-anchor="middle" font-size="10" fill="#6b7280" transform="rotate(-45 256.66666666666663 340)">2026-08-11</text>
<text x="270.7142857142857" y="340" text-anchor="middle" font-size="10" fill="#6b7280" transform="rotate(-45 270.7142857142857 340)">2026-08-12</text>
<text x="284.76190476190476" y="340" text-anchor="middle" font-size="10" fill="#6b7280" transform="rotate(-45 284.76190476190476 340)">2026-08-13</text>
<text x="298.80952380952385" y="340" text-anchor="middle" font-size="10" fill="#6b7280" transform="rotate(-45 298.80952380952385 340)">2026-08-14</text>
<text x="312.85714285714283" y="340" text-anchor="middle" font-size="10" fill="#6b7280" transform="rotate(-45 312.85714285714283 340)">2026-08-17</text>
<text x="326.9047619047619" y="340" text-anchor="middle" font-size="10" fill="#6b7280" transform="rotate(-45 326.9047619047619 340)">2026-08-18</text>
<text x="340.95238095238096" y="340" text-anchor="middle" font-size="10" fill="#6b7280" transform="rotate(-45 340.95238095238096 340)">2026-08-19</text>
<text x="355.0" y="340" text-anchor="middle" font-size="10" fill="#6b7280" transform="rotate(-45 355.0 340)">2026-08-21</text>
<text x="369.04761904761904" y="340" text-anchor="middle" font-size="10" fill="#6b7280" transform="rotate(-45 369.04761904761904 340)">2026-08-24</text>
<text x="383.09523809523813" y="340" text-anchor="middle" font-size="10" fill="#6b7280" transform="rotate(-45 383.09523809523813 340)">2026-08-25</text>
<text x="397.1428571428571" y="340" text-anchor="middle" font-size="10" fill="#6b7280" transform="rotate(-45 397.1428571428571 340)">2026-08-26</text>
<text x="411.1904761904762" y="340" text-anchor="middle" font-size="10" fill="#6b7280" transform="rotate(-45 411.1904761904762 340)">2026-08-28</text>
<text x="425.23809523809524" y="340" text-anchor="middle" font-size="10" fill="#6b7280" transform="rotate(-45 425.23809523809524 340)">2026-08-31</text>
<text x="439.28571428571433" y="340" text-anchor="middle" font-size="10" fill="#6b7280" transform="rotate(-45 439.28571428571433 340)">2026-09-01</text>
<text x="453.3333333333333" y="340" text-anchor="middle" font-size="10" fill="#6b7280" transform="rotate(-45 453.3333333333333 340)">2026-09-02</text>
<text x="467.38095238095235" y="340" text-anchor="middle" font-size="10" fill="#6b7280" transform="rotate(-45 467.38095238095235 340)">2026-09-04</text>
<text x="481.42857142857144" y="340" text-anchor="middle" font-size="10" fill="#6b7280" transform="rotate(-45 481.42857142857144 340)">2026-09-07</text>
<text x="495.4761904761905" y="340" text-anchor="middle" font-size="10" fill="#6b7280" transform="rotate(-45 495.4761904761905 340)">2026-09-08</text>
<text x="509.5238095238095" y="340" text-anchor="middle" font-size="10" fill="#6b7280" transform="rotate(-45 509.5238095238095 340)">2026-09-10</text>
<text x="523.5714285714286" y="340" text-anchor="middle" font-size="10" fill="#6b7280" transform="rotate(-45 523.5714285714286 340)">2026-09-11</text>
<text x="537.6190476190477" y="340" text-anchor="middle" font-size="10" fill="#6b7280" transform="rotate(-45 537.6190476190477 340)">2026-09-12</text>
<text x="551.6666666666667" y="340" text-anchor="middle" font-size="10" fill="#6b7280" transform="rotate(-45 551.6666666666667 340)">2026-09-13</text>
<text x="565.7142857142857" y="340" text-anchor="middle" font-size="10" fill="#6b7280" transform="rotate(-45 565.7142857142857 340)">2026-09-14</text>
<text x="579.7619047619047" y="340" text-anchor="middle" font-size="10" fill="#6b7280" transform="rotate(-45 579.7619047619047 340)">2026-09-15</text>
<text x="593.8095238095239" y="340" text-anchor="middle" font-size="10" fill="#6b7280" transform="rotate(-45 593.8095238095239 340)">2026-09-16</text>
<text x="607.8571428571429" y="340" text-anchor="middle" font-size="10" fill="#6b7280" transform="rotate(-45 607.8571428571429 340)">2026-09-17</text>
<text x="621.9047619047619" y="340" text-anchor="middle" font-size="10" fill="#6b7280" transform="rotate(-45 621.9047619047619 340)">2026-09-18</text>
<text x="635.952380952381" y="340" text-anchor="middle" font-size="10" fill="#6b7280" transform="rotate(-45 635.952380952381 340)">2026-09-19</text>
<text x="650.0" y="340" text-anchor="middle" font-size="10" fill="#6b7280" transform="rotate(-45 650.0 340)">2026-09-20</text>
<polyline points="60.0,286.0869565217391 74.04761904761905,278.2608695652174 88.0952380952381,276.95652173913044 102.14285714285714,276.95652173913044 116.19047619047619,276.95652173913044 130.23809523809524,271.7391304347826 144.28571428571428,270.4347826086956 158.33333333333331,269.1304347826087 172.38095238095238,269.1304347826087 186.42857142857142,269.1304347826087 200.47619047619048,262.60869565217394 214.52380952380952,258.69565217391306 228.57142857142856,253.47826086956522 242.61904761904762,246.95652173913044 256.66666666666663,245.6521739130435 270.7142857142857,243.04347826086956 284.76190476190476,240.43478260869566 298.80952380952385,240.43478260869566 312.85714285714283,235.2173913043478 326.9047619047619,228.69565217391306 340.95238095238096,228.69565217391306 355.0,219.56521739130437 369.04761904761904,213.04347826086956 383.09523809523813,206.52173913043478 397.1428571428571,202.60869565217394 411.1904761904762,192.17391304347825 425.23809523809524,188.2608695652174 439.28571428571433,184.34782608695653 453.3333333333333,181.7391304347826 467.38095238095235,172.6086956521739 481.42857142857144,160.8695652173913 495.4761904761905,160.8695652173913 509.5238095238095,155.65217391304347 523.5714285714286,150.43478260869566 537.6190476190477,146.52173913043478 551.6666666666667,141.30434782608694 565.7142857142857,133.47826086956522 579.7619047619047,130.8695652173913 593.8095238095239,121.7391304347826 607.8571428571429,117.82608695652175 621.9047619047619,96.95652173913044 635.952380952381,76.08695652173913 650.0,50.0" fill="none" stroke="#2563eb" stroke-width="2"/>
<circle cx="60.0" cy="286.0869565217391" r="4" fill="#2563eb"/>
<text x="60.0" y="278.0869565217391" text-anchor="middle" font-size="9" fill="#2563eb">26</text>
<circle cx="74.04761904761905" cy="278.2608695652174" r="4" fill="#2563eb"/>
<text x="74.04761904761905" y="270.2608695652174" text-anchor="middle" font-size="9" fill="#2563eb">32</text>
<circle cx="88.0952380952381" cy="276.95652173913044" r="4" fill="#2563eb"/>
<text x="88.0952380952381" y="268.95652173913044" text-anchor="middle" font-size="9" fill="#2563eb">33</text>
<circle cx="102.14285714285714" cy="276.95652173913044" r="4" fill="#2563eb"/>
<text x="102.14285714285714" y="268.95652173913044" text-anchor="middle" font-size="9" fill="#2563eb">33</text>
<circle cx="116.19047619047619" cy="276.95652173913044" r="4" fill="#2563eb"/>
<text x="116.19047619047619" y="268.95652173913044" text-anchor="middle" font-size="9" fill="#2563eb">33</text>
<circle cx="130.23809523809524" cy="271.7391304347826" r="4" fill="#2563eb"/>
<text x="130.23809523809524" y="263.7391304347826" text-anchor="middle" font-size="9" fill="#2563eb">37</text>
<circle cx="144.28571428571428" cy="270.4347826086956" r="4" fill="#2563eb"/>
<text x="144.28571428571428" y="262.4347826086956" text-anchor="middle" font-size="9" fill="#2563eb">38</text>
<circle cx="158.33333333333331" cy="269.1304347826087" r="4" fill="#2563eb"/>
<text x="158.33333333333331" y="261.1304347826087" text-anchor="middle" font-size="9" fill="#2563eb">39</text>
<circle cx="172.38095238095238" cy="269.1304347826087" r="4" fill="#2563eb"/>
<text x="172.38095238095238" y="261.1304347826087" text-anchor="middle" font-size="9" fill="#2563eb">39</text>
<circle cx="186.42857142857142" cy="269.1304347826087" r="4" fill="#2563eb"/>
<text x="186.42857142857142" y="261.1304347826087" text-anchor="middle" font-size="9" fill="#2563eb">39</text>
<circle cx="200.47619047619048" cy="262.60869565217394" r="4" fill="#2563eb"/>
<text x="200.47619047619048" y="254.60869565217394" text-anchor="middle" font-size="9" fill="#2563eb">44</text>
<circle cx="214.52380952380952" cy="258.69565217391306" r="4" fill="#2563eb"/>
<text x="214.52380952380952" y="250.69565217391306" text-anchor="middle" font-size="9" fill="#2563eb">47</text>
<circle cx="228.57142857142856" cy="253.47826086956522" r="4" fill="#2563eb"/>
<text x="228.57142857142856" y="245.47826086956522" text-anchor="middle" font-size="9" fill="#2563eb">51</text>
<circle cx="242.61904761904762" cy="246.95652173913044" r="4" fill="#2563eb"/>
<text x="242.61904761904762" y="238.95652173913044" text-anchor="middle" font-size="9" fill="#2563eb">56</text>
<circle cx="256.66666666666663" cy="245.6521739130435" r="4" fill="#2563eb"/>
<text x="256.66666666666663" y="237.6521739130435" text-anchor="middle" font-size="9" fill="#2563eb">57</text>
<circle cx="270.7142857142857" cy="243.04347826086956" r="4" fill="#2563eb"/>
<text x="270.7142857142857" y="235.04347826086956" text-anchor="middle" font-size="9" fill="#2563eb">59</text>
<circle cx="284.76190476190476" cy="240.43478260869566" r="4" fill="#2563eb"/>
<text x="284.76190476190476" y="232.43478260869566" text-anchor="middle" font-size="9" fill="#2563eb">61</text>
<circle cx="298.80952380952385" cy="240.43478260869566" r="4" fill="#2563eb"/>
<text x="298.80952380952385" y="232.43478260869566" text-anchor="middle" font-size="9" fill="#2563eb">61</text>
<circle cx="312.85714285714283" cy="235.2173913043478" r="4" fill="#2563eb"/>
<text x="312.85714285714283" y="227.2173913043478" text-anchor="middle" font-size="9" fill="#2563eb">65</text>
<circle cx="326.9047619047619" cy="228.69565217391306" r="4" fill="#2563eb"/>
<text x="326.9047619047619" y="220.69565217391306" text-anchor="middle" font-size="9" fill="#2563eb">70</text>
<circle cx="340.95238095238096" cy="228.69565217391306" r="4" fill="#2563eb"/>
<text x="340.95238095238096" y="220.69565217391306" text-anchor="middle" font-size="9" fill="#2563eb">70</text>
<circle cx="355.0" cy="219.56521739130437" r="4" fill="#2563eb"/>
<text x="355.0" y="211.56521739130437" text-anchor="middle" font-size="9" fill="#2563eb">77</text>
<circle cx="369.04761904761904" cy="213.04347826086956" r="4" fill="#2563eb"/>
<text x="369.04761904761904" y="205.04347826086956" text-anchor="middle" font-size="9" fill="#2563eb">82</text>
<circle cx="383.09523809523813" cy="206.52173913043478" r="4" fill="#2563eb"/>
<text x="383.09523809523813" y="198.52173913043478" text-anchor="middle" font-size="9" fill="#2563eb">87</text>
<circle cx="397.1428571428571" cy="202.60869565217394" r="4" fill="#2563eb"/>
<text x="397.1428571428571" y="194.60869565217394" text-anchor="middle" font-size="9" fill="#2563eb">90</text>
<circle cx="411.1904761904762" cy="192.17391304347825" r="4" fill="#2563eb"/>
<text x="411.1904761904762" y="184.17391304347825" text-anchor="middle" font-size="9" fill="#2563eb">98</text>
<circle cx="425.23809523809524" cy="188.2608695652174" r="4" fill="#2563eb"/>
<text x="425.23809523809524" y="180.2608695652174" text-anchor="middle" font-size="9" fill="#2563eb">101</text>
<circle cx="439.28571428571433" cy="184.34782608695653" r="4" fill="#2563eb"/>
<text x="439.28571428571433" y="176.34782608695653" text-anchor="middle" font-size="9" fill="#2563eb">104</text>
<circle cx="453.3333333333333" cy="181.7391304347826" r="4" fill="#2563eb"/>
<text x="453.3333333333333" y="173.7391304347826" text-anchor="middle" font-size="9" fill="#2563eb">106</text>
<circle cx="467.38095238095235" cy="172.6086956521739" r="4" fill="#2563eb"/>
<text x="467.38095238095235" y="164.6086956521739" text-anchor="middle" font-size="9" fill="#2563eb">113</text>
<circle cx="481.42857142857144" cy="160.8695652173913" r="4" fill="#2563eb"/>
<text x="481.42857142857144" y="152.8695652173913" text-anchor="middle" font-size="9" fill="#2563eb">122</text>
<circle cx="495.4761904761905" cy="160.8695652173913" r="4" fill="#2563eb"/>
<text x="495.4761904761905" y="152.8695652173913" text-anchor="middle" font-size="9" fill="#2563eb">122</text>
<circle cx="509.5238095238095" cy="155.65217391304347" r="4" fill="#2563eb"/>
<text x="509.5238095238095" y="147.65217391304347" text-anchor="middle" font-size="9" fill="#2563eb">126</text>
<circle cx="523.5714285714286" cy="150.43478260869566" r="4" fill="#2563eb"/>
<text x="523.5714285714286" y="142.43478260869566" text-anchor="middle" font-size="9" fill="#2563eb">130</text>
<circle cx="537.6190476190477" cy="146.52173913043478" r="4" fill="#2563eb"/>
<text x="537.6190476190477" y="138.52173913043478" text-anchor="middle" font-size="9" fill="#2563eb">133</text>
<circle cx="551.6666666666667" cy="141.30434782608694" r="4" fill="#2563eb"/>
<text x="551.6666666666667" y="133.30434782608694" text-anchor="middle" font-size="9" fill="#2563eb">137</text>
<circle cx="565.7142857142857" cy="133.47826086956522" r="4" fill="#2563eb"/>
<text x="565.7142857142857" y="125.47826086956522" text-anchor="middle" font-size="9" fill="#2563eb">143</text>
<circle cx="579.7619047619047" cy="130.8695652173913" r="4" fill="#2563eb"/>
<text x="579.7619047619047" y="122.86956521739131" text-anchor="middle" font-size="9" fill="#2563eb">145</text>
<circle cx="593.8095238095239" cy="121.7391304347826" r="4" fill="#2563eb"/>
<text x="593.8095238095239" y="113.7391304347826" text-anchor="middle" font-size="9" fill="#2563eb">152</text>
<circle cx="607.8571428571429" cy="117.82608695652175" r="4" fill="#2563eb"/>
<text x="607.8571428571429" y="109.82608695652175" text-anchor="middle" font-size="9" fill="#2563eb">155</text>
<circle cx="621.9047619047619" cy="96.95652173913044" r="4" fill="#2563eb"/>
<text x="621.9047619047619" y="88.95652173913044" text-anchor="middle" font-size="9" fill="#2563eb">171</text>
<circle cx="635.952380952381" cy="76.08695652173913" r="4" fill="#2563eb"/>
<text x="635.952380952381" y="68.08695652173913" text-anchor="middle" font-size="9" fill="#2563eb">187</text>
<circle cx="650.0" cy="50.0" r="4" fill="#2563eb"/>
<text x="650.0" y="42.0" text-anchor="middle" font-size="9" fill="#2563eb">207</text>
<line x1="670" y1="70" x2="690" y2="70" stroke="#2563eb" stroke-width="2"/>
<text x="695" y="74" font-size="11" fill="#2563eb">活跃仓库</text>
<polyline points="60.0,306.95652173913044 74.04761904761905,304.3478260869565 88.0952380952381,303.04347826086956 102.14285714285714,303.04347826086956 116.19047619047619,303.04347826086956 130.23809523809524,297.82608695652175 144.28571428571428,297.82608695652175 158.33333333333331,297.82608695652175 172.38095238095238,297.82608695652175 186.42857142857142,297.82608695652175 200.47619047619048,292.60869565217394 214.52380952380952,290.0 228.57142857142856,288.69565217391306 242.61904761904762,283.47826086956525 256.66666666666663,283.47826086956525 270.7142857142857,283.47826086956525 284.76190476190476,280.8695652173913 298.80952380952385,280.8695652173913 312.85714285714283,275.6521739130435 326.9047619047619,274.3478260869565 340.95238095238096,271.7391304347826 355.0,267.82608695652175 369.04761904761904,263.9130434782609 383.09523809523813,260.0 397.1428571428571,257.39130434782606 411.1904761904762,253.47826086956522 425.23809523809524,250.8695652173913 439.28571428571433,248.26086956521738 453.3333333333333,246.95652173913044 467.38095238095235,241.73913043478262 481.42857142857144,236.52173913043478 495.4761904761905,232.60869565217394 509.5238095238095,224.7826086956522 523.5714285714286,223.47826086956522 537.6190476190477,222.17391304347825 551.6666666666667,213.04347826086956 565.7142857142857,209.1304347826087 579.7619047619047,202.60869565217394 593.8095238095239,194.7826086956522 607.8571428571429,190.8695652173913 621.9047619047619,175.2173913043478 635.952380952381,151.73913043478262 650.0,123.04347826086956" fill="none" stroke="#dc2626" stroke-width="2"/>
<circle cx="60.0" cy="306.95652173913044" r="4" fill="#dc2626"/>
<text x="60.0" y="298.95652173913044" text-anchor="middle" font-size="9" fill="#dc2626">10</text>
<circle cx="74.04761904761905" cy="304.3478260869565" r="4" fill="#dc2626"/>
<text x="74.04761904761905" y="296.3478260869565" text-anchor="middle" font-size="9" fill="#dc2626">12</text>
<circle cx="88.0952380952381" cy="303.04347826086956" r="4" fill="#dc2626"/>
<text x="88.0952380952381" y="295.04347826086956" text-anchor="middle" font-size="9" fill="#dc2626">13</text>
<circle cx="102.14285714285714" cy="303.04347826086956" r="4" fill="#dc2626"/>
<text x="102.14285714285714" y="295.04347826086956" text-anchor="middle" font-size="9" fill="#dc2626">13</text>
<circle cx="116.19047619047619" cy="303.04347826086956" r="4" fill="#dc2626"/>
<text x="116.19047619047619" y="295.04347826086956" text-anchor="middle" font-size="9" fill="#dc2626">13</text>
<circle cx="130.23809523809524" cy="297.82608695652175" r="4" fill="#dc2626"/>
<text x="130.23809523809524" y="289.82608695652175" text-anchor="middle" font-size="9" fill="#dc2626">17</text>
<circle cx="144.28571428571428" cy="297.82608695652175" r="4" fill="#dc2626"/>
<text x="144.28571428571428" y="289.82608695652175" text-anchor="middle" font-size="9" fill="#dc2626">17</text>
<circle cx="158.33333333333331" cy="297.82608695652175" r="4" fill="#dc2626"/>
<text x="158.33333333333331" y="289.82608695652175" text-anchor="middle" font-size="9" fill="#dc2626">17</text>
<circle cx="172.38095238095238" cy="297.82608695652175" r="4" fill="#dc2626"/>
<text x="172.38095238095238" y="289.82608695652175" text-anchor="middle" font-size="9" fill="#dc2626">17</text>
<circle cx="186.42857142857142" cy="297.82608695652175" r="4" fill="#dc2626"/>
<text x="186.42857142857142" y="289.82608695652175" text-anchor="middle" font-size="9" fill="#dc2626">17</text>
<circle cx="200.47619047619048" cy="292.60869565217394" r="4" fill="#dc2626"/>
<text x="200.47619047619048" y="284.60869565217394" text-anchor="middle" font-size="9" fill="#dc2626">21</text>
<circle cx="214.52380952380952" cy="290.0" r="4" fill="#dc2626"/>
<text x="214.52380952380952" y="282.0" text-anchor="middle" font-size="9" fill="#dc2626">23</text>
<circle cx="228.57142857142856" cy="288.69565217391306" r="4" fill="#dc2626"/>
<text x="228.57142857142856" y="280.69565217391306" text-anchor="middle" font-size="9" fill="#dc2626">24</text>
<circle cx="242.61904761904762" cy="283.47826086956525" r="4" fill="#dc2626"/>
<text x="242.61904761904762" y="275.47826086956525" text-anchor="middle" font-size="9" fill="#dc2626">28</text>
<circle cx="256.66666666666663" cy="283.47826086956525" r="4" fill="#dc2626"/>
<text x="256.66666666666663" y="275.47826086956525" text-anchor="middle" font-size="9" fill="#dc2626">28</text>
<circle cx="270.7142857142857" cy="283.47826086956525" r="4" fill="#dc2626"/>
<text x="270.7142857142857" y="275.47826086956525" text-anchor="middle" font-size="9" fill="#dc2626">28</text>
<circle cx="284.76190476190476" cy="280.8695652173913" r="4" fill="#dc2626"/>
<text x="284.76190476190476" y="272.8695652173913" text-anchor="middle" font-size="9" fill="#dc2626">30</text>
<circle cx="298.80952380952385" cy="280.8695652173913" r="4" fill="#dc2626"/>
<text x="298.80952380952385" y="272.8695652173913" text-anchor="middle" font-size="9" fill="#dc2626">30</text>
<circle cx="312.85714285714283" cy="275.6521739130435" r="4" fill="#dc2626"/>
<text x="312.85714285714283" y="267.6521739130435" text-anchor="middle" font-size="9" fill="#dc2626">34</text>
<circle cx="326.9047619047619" cy="274.3478260869565" r="4" fill="#dc2626"/>
<text x="326.9047619047619" y="266.3478260869565" text-anchor="middle" font-size="9" fill="#dc2626">35</text>
<circle cx="340.95238095238096" cy="271.7391304347826" r="4" fill="#dc2626"/>
<text x="340.95238095238096" y="263.7391304347826" text-anchor="middle" font-size="9" fill="#dc2626">37</text>
<circle cx="355.0" cy="267.82608695652175" r="4" fill="#dc2626"/>
<text x="355.0" y="259.82608695652175" text-anchor="middle" font-size="9" fill="#dc2626">40</text>
<circle cx="369.04761904761904" cy="263.9130434782609" r="4" fill="#dc2626"/>
<text x="369.04761904761904" y="255.91304347826087" text-anchor="middle" font-size="9" fill="#dc2626">43</text>
<circle cx="383.09523809523813" cy="260.0" r="4" fill="#dc2626"/>
<text x="383.09523809523813" y="252.0" text-anchor="middle" font-size="9" fill="#dc2626">46</text>
<circle cx="397.1428571428571" cy="257.39130434782606" r="4" fill="#dc2626"/>
<text x="397.1428571428571" y="249.39130434782606" text-anchor="middle" font-size="9" fill="#dc2626">48</text>
<circle cx="411.1904761904762" cy="253.47826086956522" r="4" fill="#dc2626"/>
<text x="411.1904761904762" y="245.47826086956522" text-anchor="middle" font-size="9" fill="#dc2626">51</text>
<circle cx="425.23809523809524" cy="250.8695652173913" r="4" fill="#dc2626"/>
<text x="425.23809523809524" y="242.8695652173913" text-anchor="middle" font-size="9" fill="#dc2626">53</text>
<circle cx="439.28571428571433" cy="248.26086956521738" r="4" fill="#dc2626"/>
<text x="439.28571428571433" y="240.26086956521738" text-anchor="middle" font-size="9" fill="#dc2626">55</text>
<circle cx="453.3333333333333" cy="246.95652173913044" r="4" fill="#dc2626"/>
<text x="453.3333333333333" y="238.95652173913044" text-anchor="middle" font-size="9" fill="#dc2626">56</text>
<circle cx="467.38095238095235" cy="241.73913043478262" r="4" fill="#dc2626"/>
<text x="467.38095238095235" y="233.73913043478262" text-anchor="middle" font-size="9" fill="#dc2626">60</text>
<circle cx="481.42857142857144" cy="236.52173913043478" r="4" fill="#dc2626"/>
<text x="481.42857142857144" y="228.52173913043478" text-anchor="middle" font-size="9" fill="#dc2626">64</text>
<circle cx="495.4761904761905" cy="232.60869565217394" r="4" fill="#dc2626"/>
<text x="495.4761904761905" y="224.60869565217394" text-anchor="middle" font-size="9" fill="#dc2626">67</text>
<circle cx="509.5238095238095" cy="224.7826086956522" r="4" fill="#dc2626"/>
<text x="509.5238095238095" y="216.7826086956522" text-anchor="middle" font-size="9" fill="#dc2626">73</text>
<circle cx="523.5714285714286" cy="223.47826086956522" r="4" fill="#dc2626"/>
<text x="523.5714285714286" y="215.47826086956522" text-anchor="middle" font-size="9" fill="#dc2626">74</text>
<circle cx="537.6190476190477" cy="222.17391304347825" r="4" fill="#dc2626"/>
<text x="537.6190476190477" y="214.17391304347825" text-anchor="middle" font-size="9" fill="#dc2626">75</text>
<circle cx="551.6666666666667" cy="213.04347826086956" r="4" fill="#dc2626"/>
<text x="551.6666666666667" y="205.04347826086956" text-anchor="middle" font-size="9" fill="#dc2626">82</text>
<circle cx="565.7142857142857" cy="209.1304347826087" r="4" fill="#dc2626"/>
<text x="565.7142857142857" y="201.1304347826087" text-anchor="middle" font-size="9" fill="#dc2626">85</text>
<circle cx="579.7619047619047" cy="202.60869565217394" r="4" fill="#dc2626"/>
<text x="579.7619047619047" y="194.60869565217394" text-anchor="middle" font-size="9" fill="#dc2626">90</text>
<circle cx="593.8095238095239" cy="194.7826086956522" r="4" fill="#dc2626"/>
<text x="593.8095238095239" y="186.7826086956522" text-anchor="middle" font-size="9" fill="#dc2626">96</text>
<circle cx="607.8571428571429" cy="190.8695652173913" r="4" fill="#dc2626"/>
<text x="607.8571428571429" y="182.8695652173913" text-anchor="middle" font-size="9" fill="#dc2626">99</text>
<circle cx="621.9047619047619" cy="175.2173913043478" r="4" fill="#dc2626"/>
<text x="621.9047619047619" y="167.2173913043478" text-anchor="middle" font-size="9" fill="#dc2626">111</text>
<circle cx="635.952380952381" cy="151.73913043478262" r="4" fill="#dc2626"/>
<text x="635.952380952381" y="143.73913043478262" text-anchor="middle" font-size="9" fill="#dc2626">129</text>
<circle cx="650.0" cy="123.04347826086956" r="4" fill="#dc2626"/>
<text x="650.0" y="115.04347826086956" text-anchor="middle" font-size="9" fill="#dc2626">151</text>
<line x1="670" y1="90" x2="690" y2="90" stroke="#dc2626" stroke-width="2"/>
<text x="695" y="94" font-size="11" fill="#dc2626">AI Log仓库</text>
</svg>