<svg xmlns="http://www.w3.org/2000/svg" viewBox="0 0 800 400">
<rect width="800" height="400" fill="white"/>
<text x="400" y="30" text-anchor="middle" font-size="16" font-weight="bold">活跃仓库 & AI Log 趋势</text>
<line x1="60" y1="320.0" x2="650" y2="320.0" stroke="#e5e7eb" stroke-width="1"/>
<text x="50" y="324.0" text-anchor="end" font-size="11" fill="#6b7280">0</text>
<line x1="60" y1="252.5" x2="650" y2="252.5" stroke="#e5e7eb" stroke-width="1"/>
<text x="50" y="256.5" text-anchor="end" font-size="11" fill="#6b7280">8</text>
<line x1="60" y1="185.0" x2="650" y2="185.0" stroke="#e5e7eb" stroke-width="1"/>
<text x="50" y="189.0" text-anchor="end" font-size="11" fill="#6b7280">16</text>
<line x1="60" y1="117.5" x2="650" y2="117.5" stroke="#e5e7eb" stroke-width="1"/>
<text x="50" y="121.5" text-anchor="end" font-size="11" fill="#6b7280">24</text>
<line x1="60" y1="50.0" x2="650" y2="50.0" stroke="#e5e7eb" stroke-width="1"/>
<text x="50" y="54.0" text-anchor="end" font-size="11" fill="#6b7280">33</text>
<text x="60.0" y="340" text-anchor="middle" font-size="10" fill="#6b7280" transform="rotate(-45 60.0 340)">2026-07-17</text>
<text x="355.0" y="340" text-anchor="middle" font-size="10" fill="#6b7280" transform="rotate(-45 355.0 340)">2026-07-20</text>
<text x="650.0" y="340" text-anchor="middle" font-size="10" fill="#6b7280" transform="rotate(-45 650.0 340)">2026-07-21</text>
<polyline points="60.0,107.27272727272728 355.0,58.18181818181819 650.0,50.0" fill="none" stroke="#2563eb" stroke-width="2"/>
<circle cx="60.0" cy="107.27272727272728" r="4" fill="#2563eb"/>
<text x="60.0" y="99.27272727272728" text-anchor="middle" font-size="9" fill="#2563eb">26</text>
<circle cx="355.0" cy="58.18181818181819" r="4" fill="#2563eb"/>
<text x="355.0" y="50.18181818181819" text-anchor="middle" font-size="9" fill="#2563eb">32</text>
<circle cx="650.0" cy="50.0" r="4" fill="#2563eb"/>
<text x="650.0" y="42.0" text-anchor="middle" font-size="9" fill="#2563eb">33</text>
<line x1="670" y1="70" x2="690" y2="70" stroke="#2563eb" stroke-width="2"/>
<text x="695" y="74" font-size="11" fill="#2563eb">活跃仓库</text>
<polyline points="60.0,238.1818181818182 355.0,221.8181818181818 650.0,213.63636363636363" fill="none" stroke="#dc2626" stroke-width="2"/>
<circle cx="60.0" cy="238.1818181818182" r="4" fill="#dc2626"/>
<text x="60.0" y="230.1818181818182" text-anchor="middle" font-size="9" fill="#dc2626">10</text>
<circle cx="355.0" cy="221.8181818181818" r="4" fill="#dc2626"/>
<text x="355.0" y="213.8181818181818" text-anchor="middle" font-size="9" fill="#dc2626">12</text>
<circle cx="650.0" cy="213.63636363636363" r="4" fill="#dc2626"/>
<text x="650.0" y="205.63636363636363" text-anchor="middle" font-size="9" fill="#dc2626">13</text>
<line x1="670" y1="90" x2="690" y2="90" stroke="#dc2626" stroke-width="2"/>
<text x="695" y="94" font-size="11" fill="#dc2626">AI Log仓库</text>
</svg>