<svg xmlns="http://www.w3.org/2000/svg" viewBox="0 0 800 400">
<rect width="800" height="400" fill="white"/>
<text x="400" y="30" text-anchor="middle" font-size="16" font-weight="bold">PR & Issue 数量趋势</text>
<line x1="60" y1="320.0" x2="650" y2="320.0" stroke="#e5e7eb" stroke-width="1"/>
<text x="50" y="324.0" text-anchor="end" font-size="11" fill="#6b7280">0</text>
<line x1="60" y1="252.5" x2="650" y2="252.5" stroke="#e5e7eb" stroke-width="1"/>
<text x="50" y="256.5" text-anchor="end" font-size="11" fill="#6b7280">233</text>
<line x1="60" y1="185.0" x2="650" y2="185.0" stroke="#e5e7eb" stroke-width="1"/>
<text x="50" y="189.0" text-anchor="end" font-size="11" fill="#6b7280">467</text>
<line x1="60" y1="117.5" x2="650" y2="117.5" stroke="#e5e7eb" stroke-width="1"/>
<text x="50" y="121.5" text-anchor="end" font-size="11" fill="#6b7280">701</text>
<line x1="60" y1="50.0" x2="650" y2="50.0" stroke="#e5e7eb" stroke-width="1"/>
<text x="50" y="54.0" text-anchor="end" font-size="11" fill="#6b7280">935</text>
<text x="60.0" y="340" text-anchor="middle" font-size="10" fill="#6b7280" transform="rotate(-45 60.0 340)">2026-07-17</text>
<text x="78.4375" y="340" text-anchor="middle" font-size="10" fill="#6b7280" transform="rotate(-45 78.4375 340)">2026-07-20</text>
<text x="96.875" y="340" text-anchor="middle" font-size="10" fill="#6b7280" transform="rotate(-45 96.875 340)">2026-07-21</text>
<text x="115.3125" y="340" text-anchor="middle" font-size="10" fill="#6b7280" transform="rotate(-45 115.3125 340)">2026-07-22</text>
<text x="133.75" y="340" text-anchor="middle" font-size="10" fill="#6b7280" transform="rotate(-45 133.75 340)">2026-07-23</text>
<text x="152.1875" y="340" text-anchor="middle" font-size="10" fill="#6b7280" transform="rotate(-45 152.1875 340)">2026-07-27</text>
<text x="170.625" y="340" text-anchor="middle" font-size="10" fill="#6b7280" transform="rotate(-45 170.625 340)">2026-07-28</text>
<text x="189.0625" y="340" text-anchor="middle" font-size="10" fill="#6b7280" transform="rotate(-45 189.0625 340)">2026-07-29</text>
<text x="207.5" y="340" text-anchor="middle" font-size="10" fill="#6b7280" transform="rotate(-45 207.5 340)">2026-07-30</text>
<text x="225.9375" y="340" text-anchor="middle" font-size="10" fill="#6b7280" transform="rotate(-45 225.9375 340)">2026-07-31</text>
<text x="244.375" y="340" text-anchor="middle" font-size="10" fill="#6b7280" transform="rotate(-45 244.375 340)">2026-08-03</text>
<text x="262.8125" y="340" text-anchor="middle" font-size="10" fill="#6b7280" transform="rotate(-45 262.8125 340)">2026-08-05</text>
<text x="281.25" y="340" text-anchor="middle" font-size="10" fill="#6b7280" transform="rotate(-45 281.25 340)">2026-08-06</text>
<text x="299.6875" y="340" text-anchor="middle" font-size="10" fill="#6b7280" transform="rotate(-45 299.6875 340)">2026-08-10</text>
<text x="318.125" y="340" text-anchor="middle" font-size="10" fill="#6b7280" transform="rotate(-45 318.125 340)">2026-08-11</text>
<text x="336.5625" y="340" text-anchor="middle" font-size="10" fill="#6b7280" transform="rotate(-45 336.5625 340)">2026-08-12</text>
<text x="355.0" y="340" text-anchor="middle" font-size="10" fill="#6b7280" transform="rotate(-45 355.0 340)">2026-08-13</text>
<text x="373.4375" y="340" text-anchor="middle" font-size="10" fill="#6b7280" transform="rotate(-45 373.4375 340)">2026-08-14</text>
<text x="391.875" y="340" text-anchor="middle" font-size="10" fill="#6b7280" transform="rotate(-45 391.875 340)">2026-08-17</text>
<text x="410.3125" y="340" text-anchor="middle" font-size="10" fill="#6b7280" transform="rotate(-45 410.3125 340)">2026-08-18</text>
<text x="428.75" y="340" text-anchor="middle" font-size="10" fill="#6b7280" transform="rotate(-45 428.75 340)">2026-08-19</text>
<text x="447.1875" y="340" text-anchor="middle" font-size="10" fill="#6b7280" transform="rotate(-45 447.1875 340)">2026-08-21</text>
<text x="465.625" y="340" text-anchor="middle" font-size="10" fill="#6b7280" transform="rotate(-45 465.625 340)">2026-08-24</text>
<text x="484.0625" y="340" text-anchor="middle" font-size="10" fill="#6b7280" transform="rotate(-45 484.0625 340)">2026-08-25</text>
<text x="502.5" y="340" text-anchor="middle" font-size="10" fill="#6b7280" transform="rotate(-45 502.5 340)">2026-08-26</text>
<text x="520.9375" y="340" text-anchor="middle" font-size="10" fill="#6b7280" transform="rotate(-45 520.9375 340)">2026-08-28</text>
<text x="539.375" y="340" text-anchor="middle" font-size="10" fill="#6b7280" transform="rotate(-45 539.375 340)">2026-08-31</text>
<text x="557.8125" y="340" text-anchor="middle" font-size="10" fill="#6b7280" transform="rotate(-45 557.8125 340)">2026-09-01</text>
<text x="576.25" y="340" text-anchor="middle" font-size="10" fill="#6b7280" transform="rotate(-45 576.25 340)">2026-09-02</text>
<text x="594.6875" y="340" text-anchor="middle" font-size="10" fill="#6b7280" transform="rotate(-45 594.6875 340)">2026-09-04</text>
<text x="613.125" y="340" text-anchor="middle" font-size="10" fill="#6b7280" transform="rotate(-45 613.125 340)">2026-09-07</text>
<text x="631.5625" y="340" text-anchor="middle" font-size="10" fill="#6b7280" transform="rotate(-45 631.5625 340)">2026-09-08</text>
<text x="650.0" y="340" text-anchor="middle" font-size="10" fill="#6b7280" transform="rotate(-45 650.0 340)">2026-09-10</text>
<polyline points="60.0,284.7700534759358 78.4375,275.8181818181818 96.875,275.24064171122996 115.3125,274.37433155080214 133.75,273.5080213903743 152.1875,268.59893048128345 170.625,266.57754010695186 189.0625,264.8449197860963 207.5,261.668449197861 225.9375,258.7807486631016 244.375,253.29411764705884 262.8125,249.54010695187165 281.25,247.22994652406416 299.6875,238.85561497326205 318.125,233.36898395721926 336.5625,229.6149732620321 355.0,226.4385026737968 373.4375,220.08556149732618 391.875,200.44919786096256 410.3125,196.11764705882354 428.75,191.49732620320856 447.1875,179.0802139037433 465.625,161.17647058823528 484.0625,155.6898395721925 502.5,150.49197860962568 520.9375,138.6524064171123 539.375,110.64171122994654 557.8125,104.57754010695189 576.25,100.53475935828877 594.6875,92.16042780748663 613.125,71.65775401069519 631.5625,66.45989304812832 650.0,50.0" fill="none" stroke="#2563eb" stroke-width="2"/>
<circle cx="60.0" cy="284.7700534759358" r="4" fill="#2563eb"/>
<text x="60.0" y="276.7700534759358" text-anchor="middle" font-size="9" fill="#2563eb">122</text>
<circle cx="78.4375" cy="275.8181818181818" r="4" fill="#2563eb"/>
<text x="78.4375" y="267.8181818181818" text-anchor="middle" font-size="9" fill="#2563eb">153</text>
<circle cx="96.875" cy="275.24064171122996" r="4" fill="#2563eb"/>
<text x="96.875" y="267.24064171122996" text-anchor="middle" font-size="9" fill="#2563eb">155</text>
<circle cx="115.3125" cy="274.37433155080214" r="4" fill="#2563eb"/>
<text x="115.3125" y="266.37433155080214" text-anchor="middle" font-size="9" fill="#2563eb">158</text>
<circle cx="133.75" cy="273.5080213903743" r="4" fill="#2563eb"/>
<text x="133.75" y="265.5080213903743" text-anchor="middle" font-size="9" fill="#2563eb">161</text>
<circle cx="152.1875" cy="268.59893048128345" r="4" fill="#2563eb"/>
<text x="152.1875" y="260.59893048128345" text-anchor="middle" font-size="9" fill="#2563eb">178</text>
<circle cx="170.625" cy="266.57754010695186" r="4" fill="#2563eb"/>
<text x="170.625" y="258.57754010695186" text-anchor="middle" font-size="9" fill="#2563eb">185</text>
<circle cx="189.0625" cy="264.8449197860963" r="4" fill="#2563eb"/>
<text x="189.0625" y="256.8449197860963" text-anchor="middle" font-size="9" fill="#2563eb">191</text>
<circle cx="207.5" cy="261.668449197861" r="4" fill="#2563eb"/>
<text x="207.5" y="253.66844919786098" text-anchor="middle" font-size="9" fill="#2563eb">202</text>
<circle cx="225.9375" cy="258.7807486631016" r="4" fill="#2563eb"/>
<text x="225.9375" y="250.78074866310158" text-anchor="middle" font-size="9" fill="#2563eb">212</text>
<circle cx="244.375" cy="253.29411764705884" r="4" fill="#2563eb"/>
<text x="244.375" y="245.29411764705884" text-anchor="middle" font-size="9" fill="#2563eb">231</text>
<circle cx="262.8125" cy="249.54010695187165" r="4" fill="#2563eb"/>
<text x="262.8125" y="241.54010695187165" text-anchor="middle" font-size="9" fill="#2563eb">244</text>
<circle cx="281.25" cy="247.22994652406416" r="4" fill="#2563eb"/>
<text x="281.25" y="239.22994652406416" text-anchor="middle" font-size="9" fill="#2563eb">252</text>
<circle cx="299.6875" cy="238.85561497326205" r="4" fill="#2563eb"/>
<text x="299.6875" y="230.85561497326205" text-anchor="middle" font-size="9" fill="#2563eb">281</text>
<circle cx="318.125" cy="233.36898395721926" r="4" fill="#2563eb"/>
<text x="318.125" y="225.36898395721926" text-anchor="middle" font-size="9" fill="#2563eb">300</text>
<circle cx="336.5625" cy="229.6149732620321" r="4" fill="#2563eb"/>
<text x="336.5625" y="221.6149732620321" text-anchor="middle" font-size="9" fill="#2563eb">313</text>
<circle cx="355.0" cy="226.4385026737968" r="4" fill="#2563eb"/>
<text x="355.0" y="218.4385026737968" text-anchor="middle" font-size="9" fill="#2563eb">324</text>
<circle cx="373.4375" cy="220.08556149732618" r="4" fill="#2563eb"/>
<text x="373.4375" y="212.08556149732618" text-anchor="middle" font-size="9" fill="#2563eb">346</text>
<circle cx="391.875" cy="200.44919786096256" r="4" fill="#2563eb"/>
<text x="391.875" y="192.44919786096256" text-anchor="middle" font-size="9" fill="#2563eb">414</text>
<circle cx="410.3125" cy="196.11764705882354" r="4" fill="#2563eb"/>
<text x="410.3125" y="188.11764705882354" text-anchor="middle" font-size="9" fill="#2563eb">429</text>
<circle cx="428.75" cy="191.49732620320856" r="4" fill="#2563eb"/>
<text x="428.75" y="183.49732620320856" text-anchor="middle" font-size="9" fill="#2563eb">445</text>
<circle cx="447.1875" cy="179.0802139037433" r="4" fill="#2563eb"/>
<text x="447.1875" y="171.0802139037433" text-anchor="middle" font-size="9" fill="#2563eb">488</text>
<circle cx="465.625" cy="161.17647058823528" r="4" fill="#2563eb"/>
<text x="465.625" y="153.17647058823528" text-anchor="middle" font-size="9" fill="#2563eb">550</text>
<circle cx="484.0625" cy="155.6898395721925" r="4" fill="#2563eb"/>
<text x="484.0625" y="147.6898395721925" text-anchor="middle" font-size="9" fill="#2563eb">569</text>
<circle cx="502.5" cy="150.49197860962568" r="4" fill="#2563eb"/>
<text x="502.5" y="142.49197860962568" text-anchor="middle" font-size="9" fill="#2563eb">587</text>
<circle cx="520.9375" cy="138.6524064171123" r="4" fill="#2563eb"/>
<text x="520.9375" y="130.6524064171123" text-anchor="middle" font-size="9" fill="#2563eb">628</text>
<circle cx="539.375" cy="110.64171122994654" r="4" fill="#2563eb"/>
<text x="539.375" y="102.64171122994654" text-anchor="middle" font-size="9" fill="#2563eb">725</text>
<circle cx="557.8125" cy="104.57754010695189" r="4" fill="#2563eb"/>
<text x="557.8125" y="96.57754010695189" text-anchor="middle" font-size="9" fill="#2563eb">746</text>
<circle cx="576.25" cy="100.53475935828877" r="4" fill="#2563eb"/>
<text x="576.25" y="92.53475935828877" text-anchor="middle" font-size="9" fill="#2563eb">760</text>
<circle cx="594.6875" cy="92.16042780748663" r="4" fill="#2563eb"/>
<text x="594.6875" y="84.16042780748663" text-anchor="middle" font-size="9" fill="#2563eb">789</text>
<circle cx="613.125" cy="71.65775401069519" r="4" fill="#2563eb"/>
<text x="613.125" y="63.657754010695186" text-anchor="middle" font-size="9" fill="#2563eb">860</text>
<circle cx="631.5625" cy="66.45989304812832" r="4" fill="#2563eb"/>
<text x="631.5625" y="58.45989304812832" text-anchor="middle" font-size="9" fill="#2563eb">878</text>
<circle cx="650.0" cy="50.0" r="4" fill="#2563eb"/>
<text x="650.0" y="42.0" text-anchor="middle" font-size="9" fill="#2563eb">935</text>
<line x1="670" y1="70" x2="690" y2="70" stroke="#2563eb" stroke-width="2"/>
<text x="695" y="74" font-size="11" fill="#2563eb">PR</text>
<polyline points="60.0,308.16042780748666 78.4375,308.16042780748666 96.875,308.16042780748666 115.3125,308.16042780748666 133.75,308.16042780748666 152.1875,307.58288770053474 170.625,307.58288770053474 189.0625,307.58288770053474 207.5,307.58288770053474 225.9375,307.29411764705884 244.375,307.0053475935829 262.8125,307.0053475935829 281.25,307.0053475935829 299.6875,307.0053475935829 318.125,307.0053475935829 336.5625,307.0053475935829 355.0,307.0053475935829 373.4375,307.0053475935829 391.875,307.0053475935829 410.3125,307.0053475935829 428.75,307.0053475935829 447.1875,307.0053475935829 465.625,307.0053475935829 484.0625,307.0053475935829 502.5,307.0053475935829 520.9375,307.0053475935829 539.375,307.0053475935829 557.8125,307.0053475935829 576.25,307.0053475935829 594.6875,307.0053475935829 613.125,307.0053475935829 631.5625,307.0053475935829 650.0,307.0053475935829" fill="none" stroke="#dc2626" stroke-width="2"/>
<circle cx="60.0" cy="308.16042780748666" r="4" fill="#dc2626"/>
<text x="60.0" y="300.16042780748666" text-anchor="middle" font-size="9" fill="#dc2626">41</text>
<circle cx="78.4375" cy="308.16042780748666" r="4" fill="#dc2626"/>
<text x="78.4375" y="300.16042780748666" text-anchor="middle" font-size="9" fill="#dc2626">41</text>
<circle cx="96.875" cy="308.16042780748666" r="4" fill="#dc2626"/>
<text x="96.875" y="300.16042780748666" text-anchor="middle" font-size="9" fill="#dc2626">41</text>
<circle cx="115.3125" cy="308.16042780748666" r="4" fill="#dc2626"/>
<text x="115.3125" y="300.16042780748666" text-anchor="middle" font-size="9" fill="#dc2626">41</text>
<circle cx="133.75" cy="308.16042780748666" r="4" fill="#dc2626"/>
<text x="133.75" y="300.16042780748666" text-anchor="middle" font-size="9" fill="#dc2626">41</text>
<circle cx="152.1875" cy="307.58288770053474" r="4" fill="#dc2626"/>
<text x="152.1875" y="299.58288770053474" text-anchor="middle" font-size="9" fill="#dc2626">43</text>
<circle cx="170.625" cy="307.58288770053474" r="4" fill="#dc2626"/>
<text x="170.625" y="299.58288770053474" text-anchor="middle" font-size="9" fill="#dc2626">43</text>
<circle cx="189.0625" cy="307.58288770053474" r="4" fill="#dc2626"/>
<text x="189.0625" y="299.58288770053474" text-anchor="middle" font-size="9" fill="#dc2626">43</text>
<circle cx="207.5" cy="307.58288770053474" r="4" fill="#dc2626"/>
<text x="207.5" y="299.58288770053474" text-anchor="middle" font-size="9" fill="#dc2626">43</text>
<circle cx="225.9375" cy="307.29411764705884" r="4" fill="#dc2626"/>
<text x="225.9375" y="299.29411764705884" text-anchor="middle" font-size="9" fill="#dc2626">44</text>
<circle cx="244.375" cy="307.0053475935829" r="4" fill="#dc2626"/>
<text x="244.375" y="299.0053475935829" text-anchor="middle" font-size="9" fill="#dc2626">45</text>
<circle cx="262.8125" cy="307.0053475935829" r="4" fill="#dc2626"/>
<text x="262.8125" y="299.0053475935829" text-anchor="middle" font-size="9" fill="#dc2626">45</text>
<circle cx="281.25" cy="307.0053475935829" r="4" fill="#dc2626"/>
<text x="281.25" y="299.0053475935829" text-anchor="middle" font-size="9" fill="#dc2626">45</text>
<circle cx="299.6875" cy="307.0053475935829" r="4" fill="#dc2626"/>
<text x="299.6875" y="299.0053475935829" text-anchor="middle" font-size="9" fill="#dc2626">45</text>
<circle cx="318.125" cy="307.0053475935829" r="4" fill="#dc2626"/>
<text x="318.125" y="299.0053475935829" text-anchor="middle" font-size="9" fill="#dc2626">45</text>
<circle cx="336.5625" cy="307.0053475935829" r="4" fill="#dc2626"/>
<text x="336.5625" y="299.0053475935829" text-anchor="middle" font-size="9" fill="#dc2626">45</text>
<circle cx="355.0" cy="307.0053475935829" r="4" fill="#dc2626"/>
<text x="355.0" y="299.0053475935829" text-anchor="middle" font-size="9" fill="#dc2626">45</text>
<circle cx="373.4375" cy="307.0053475935829" r="4" fill="#dc2626"/>
<text x="373.4375" y="299.0053475935829" text-anchor="middle" font-size="9" fill="#dc2626">45</text>
<circle cx="391.875" cy="307.0053475935829" r="4" fill="#dc2626"/>
<text x="391.875" y="299.0053475935829" text-anchor="middle" font-size="9" fill="#dc2626">45</text>
<circle cx="410.3125" cy="307.0053475935829" r="4" fill="#dc2626"/>
<text x="410.3125" y="299.0053475935829" text-anchor="middle" font-size="9" fill="#dc2626">45</text>
<circle cx="428.75" cy="307.0053475935829" r="4" fill="#dc2626"/>
<text x="428.75" y="299.0053475935829" text-anchor="middle" font-size="9" fill="#dc2626">45</text>
<circle cx="447.1875" cy="307.0053475935829" r="4" fill="#dc2626"/>
<text x="447.1875" y="299.0053475935829" text-anchor="middle" font-size="9" fill="#dc2626">45</text>
<circle cx="465.625" cy="307.0053475935829" r="4" fill="#dc2626"/>
<text x="465.625" y="299.0053475935829" text-anchor="middle" font-size="9" fill="#dc2626">45</text>
<circle cx="484.0625" cy="307.0053475935829" r="4" fill="#dc2626"/>
<text x="484.0625" y="299.0053475935829" text-anchor="middle" font-size="9" fill="#dc2626">45</text>
<circle cx="502.5" cy="307.0053475935829" r="4" fill="#dc2626"/>
<text x="502.5" y="299.0053475935829" text-anchor="middle" font-size="9" fill="#dc2626">45</text>
<circle cx="520.9375" cy="307.0053475935829" r="4" fill="#dc2626"/>
<text x="520.9375" y="299.0053475935829" text-anchor="middle" font-size="9" fill="#dc2626">45</text>
<circle cx="539.375" cy="307.0053475935829" r="4" fill="#dc2626"/>
<text x="539.375" y="299.0053475935829" text-anchor="middle" font-size="9" fill="#dc2626">45</text>
<circle cx="557.8125" cy="307.0053475935829" r="4" fill="#dc2626"/>
<text x="557.8125" y="299.0053475935829" text-anchor="middle" font-size="9" fill="#dc2626">45</text>
<circle cx="576.25" cy="307.0053475935829" r="4" fill="#dc2626"/>
<text x="576.25" y="299.0053475935829" text-anchor="middle" font-size="9" fill="#dc2626">45</text>
<circle cx="594.6875" cy="307.0053475935829" r="4" fill="#dc2626"/>
<text x="594.6875" y="299.0053475935829" text-anchor="middle" font-size="9" fill="#dc2626">45</text>
<circle cx="613.125" cy="307.0053475935829" r="4" fill="#dc2626"/>
<text x="613.125" y="299.0053475935829" text-anchor="middle" font-size="9" fill="#dc2626">45</text>
<circle cx="631.5625" cy="307.0053475935829" r="4" fill="#dc2626"/>
<text x="631.5625" y="299.0053475935829" text-anchor="middle" font-size="9" fill="#dc2626">45</text>
<circle cx="650.0" cy="307.0053475935829" r="4" fill="#dc2626"/>
<text x="650.0" y="299.0053475935829" text-anchor="middle" font-size="9" fill="#dc2626">45</text>
<line x1="670" y1="90" x2="690" y2="90" stroke="#dc2626" stroke-width="2"/>
<text x="695" y="94" font-size="11" fill="#dc2626">Issue</text>
</svg>