<svg xmlns="http://www.w3.org/2000/svg" viewBox="0 0 800 400">
<rect width="800" height="400" fill="white"/>
<text x="400" y="30" text-anchor="middle" font-size="16" font-weight="bold">PR & Issue 数量趋势</text>
<line x1="60" y1="320.0" x2="650" y2="320.0" stroke="#e5e7eb" stroke-width="1"/>
<text x="50" y="324.0" text-anchor="end" font-size="11" fill="#6b7280">0</text>
<line x1="60" y1="252.5" x2="650" y2="252.5" stroke="#e5e7eb" stroke-width="1"/>
<text x="50" y="256.5" text-anchor="end" font-size="11" fill="#6b7280">394</text>
<line x1="60" y1="185.0" x2="650" y2="185.0" stroke="#e5e7eb" stroke-width="1"/>
<text x="50" y="189.0" text-anchor="end" font-size="11" fill="#6b7280">788</text>
<line x1="60" y1="117.5" x2="650" y2="117.5" stroke="#e5e7eb" stroke-width="1"/>
<text x="50" y="121.5" text-anchor="end" font-size="11" fill="#6b7280">1182</text>
<line x1="60" y1="50.0" x2="650" y2="50.0" stroke="#e5e7eb" stroke-width="1"/>
<text x="50" y="54.0" text-anchor="end" font-size="11" fill="#6b7280">1576</text>
<text x="60.0" y="340" text-anchor="middle" font-size="10" fill="#6b7280" transform="rotate(-45 60.0 340)">2026-07-17</text>
<text x="70.0" y="340" text-anchor="middle" font-size="10" fill="#6b7280" transform="rotate(-45 70.0 340)">2026-07-20</text>
<text x="80.0" y="340" text-anchor="middle" font-size="10" fill="#6b7280" transform="rotate(-45 80.0 340)">2026-07-21</text>
<text x="90.0" y="340" text-anchor="middle" font-size="10" fill="#6b7280" transform="rotate(-45 90.0 340)">2026-07-22</text>
<text x="100.0" y="340" text-anchor="middle" font-size="10" fill="#6b7280" transform="rotate(-45 100.0 340)">2026-07-23</text>
<text x="110.0" y="340" text-anchor="middle" font-size="10" fill="#6b7280" transform="rotate(-45 110.0 340)">2026-07-27</text>
<text x="120.0" y="340" text-anchor="middle" font-size="10" fill="#6b7280" transform="rotate(-45 120.0 340)">2026-07-28</text>
<text x="130.0" y="340" text-anchor="middle" font-size="10" fill="#6b7280" transform="rotate(-45 130.0 340)">2026-07-29</text>
<text x="140.0" y="340" text-anchor="middle" font-size="10" fill="#6b7280" transform="rotate(-45 140.0 340)">2026-07-30</text>
<text x="150.0" y="340" text-anchor="middle" font-size="10" fill="#6b7280" transform="rotate(-45 150.0 340)">2026-07-31</text>
<text x="160.0" y="340" text-anchor="middle" font-size="10" fill="#6b7280" transform="rotate(-45 160.0 340)">2026-08-03</text>
<text x="170.0" y="340" text-anchor="middle" font-size="10" fill="#6b7280" transform="rotate(-45 170.0 340)">2026-08-05</text>
<text x="180.0" y="340" text-anchor="middle" font-size="10" fill="#6b7280" transform="rotate(-45 180.0 340)">2026-08-06</text>
<text x="190.0" y="340" text-anchor="middle" font-size="10" fill="#6b7280" transform="rotate(-45 190.0 340)">2026-08-10</text>
<text x="200.0" y="340" text-anchor="middle" font-size="10" fill="#6b7280" transform="rotate(-45 200.0 340)">2026-08-11</text>
<text x="210.0" y="340" text-anchor="middle" font-size="10" fill="#6b7280" transform="rotate(-45 210.0 340)">2026-08-12</text>
<text x="220.0" y="340" text-anchor="middle" font-size="10" fill="#6b7280" transform="rotate(-45 220.0 340)">2026-08-13</text>
<text x="230.0" y="340" text-anchor="middle" font-size="10" fill="#6b7280" transform="rotate(-45 230.0 340)">2026-08-14</text>
<text x="240.0" y="340" text-anchor="middle" font-size="10" fill="#6b7280" transform="rotate(-45 240.0 340)">2026-08-17</text>
<text x="249.99999999999997" y="340" text-anchor="middle" font-size="10" fill="#6b7280" transform="rotate(-45 249.99999999999997 340)">2026-08-18</text>
<text x="260.0" y="340" text-anchor="middle" font-size="10" fill="#6b7280" transform="rotate(-45 260.0 340)">2026-08-19</text>
<text x="270.0" y="340" text-anchor="middle" font-size="10" fill="#6b7280" transform="rotate(-45 270.0 340)">2026-08-21</text>
<text x="280.0" y="340" text-anchor="middle" font-size="10" fill="#6b7280" transform="rotate(-45 280.0 340)">2026-08-24</text>
<text x="290.0" y="340" text-anchor="middle" font-size="10" fill="#6b7280" transform="rotate(-45 290.0 340)">2026-08-25</text>
<text x="300.0" y="340" text-anchor="middle" font-size="10" fill="#6b7280" transform="rotate(-45 300.0 340)">2026-08-26</text>
<text x="310.0" y="340" text-anchor="middle" font-size="10" fill="#6b7280" transform="rotate(-45 310.0 340)">2026-08-28</text>
<text x="320.0" y="340" text-anchor="middle" font-size="10" fill="#6b7280" transform="rotate(-45 320.0 340)">2026-08-31</text>
<text x="330.0" y="340" text-anchor="middle" font-size="10" fill="#6b7280" transform="rotate(-45 330.0 340)">2026-09-01</text>
<text x="340.0" y="340" text-anchor="middle" font-size="10" fill="#6b7280" transform="rotate(-45 340.0 340)">2026-09-02</text>
<text x="350.0" y="340" text-anchor="middle" font-size="10" fill="#6b7280" transform="rotate(-45 350.0 340)">2026-09-04</text>
<text x="360.0" y="340" text-anchor="middle" font-size="10" fill="#6b7280" transform="rotate(-45 360.0 340)">2026-09-07</text>
<text x="370.0" y="340" text-anchor="middle" font-size="10" fill="#6b7280" transform="rotate(-45 370.0 340)">2026-09-08</text>
<text x="380.0" y="340" text-anchor="middle" font-size="10" fill="#6b7280" transform="rotate(-45 380.0 340)">2026-09-10</text>
<text x="390.0" y="340" text-anchor="middle" font-size="10" fill="#6b7280" transform="rotate(-45 390.0 340)">2026-09-11</text>
<text x="400.0" y="340" text-anchor="middle" font-size="10" fill="#6b7280" transform="rotate(-45 400.0 340)">2026-09-12</text>
<text x="410.0" y="340" text-anchor="middle" font-size="10" fill="#6b7280" transform="rotate(-45 410.0 340)">2026-09-13</text>
<text x="420.0" y="340" text-anchor="middle" font-size="10" fill="#6b7280" transform="rotate(-45 420.0 340)">2026-09-14</text>
<text x="430.0" y="340" text-anchor="middle" font-size="10" fill="#6b7280" transform="rotate(-45 430.0 340)">2026-09-15</text>
<text x="439.99999999999994" y="340" text-anchor="middle" font-size="10" fill="#6b7280" transform="rotate(-45 439.99999999999994 340)">2026-09-16</text>
<text x="450.0" y="340" text-anchor="middle" font-size="10" fill="#6b7280" transform="rotate(-45 450.0 340)">2026-09-17</text>
<text x="460.0" y="340" text-anchor="middle" font-size="10" fill="#6b7280" transform="rotate(-45 460.0 340)">2026-09-18</text>
<text x="470.0" y="340" text-anchor="middle" font-size="10" fill="#6b7280" transform="rotate(-45 470.0 340)">2026-09-19</text>
<text x="480.0" y="340" text-anchor="middle" font-size="10" fill="#6b7280" transform="rotate(-45 480.0 340)">2026-09-20</text>
<text x="489.99999999999994" y="340" text-anchor="middle" font-size="10" fill="#6b7280" transform="rotate(-45 489.99999999999994 340)">2026-09-21</text>
<text x="500.0" y="340" text-anchor="middle" font-size="10" fill="#6b7280" transform="rotate(-45 500.0 340)">2026-09-22</text>
<text x="510.0" y="340" text-anchor="middle" font-size="10" fill="#6b7280" transform="rotate(-45 510.0 340)">2026-09-23</text>
<text x="520.0" y="340" text-anchor="middle" font-size="10" fill="#6b7280" transform="rotate(-45 520.0 340)">2026-09-24</text>
<text x="530.0" y="340" text-anchor="middle" font-size="10" fill="#6b7280" transform="rotate(-45 530.0 340)">2026-09-25</text>
<text x="540.0" y="340" text-anchor="middle" font-size="10" fill="#6b7280" transform="rotate(-45 540.0 340)">2026-09-26</text>
<text x="550.0" y="340" text-anchor="middle" font-size="10" fill="#6b7280" transform="rotate(-45 550.0 340)">2026-09-27</text>
<text x="560.0" y="340" text-anchor="middle" font-size="10" fill="#6b7280" transform="rotate(-45 560.0 340)">2026-09-28</text>
<text x="570.0" y="340" text-anchor="middle" font-size="10" fill="#6b7280" transform="rotate(-45 570.0 340)">2026-09-29</text>
<text x="580.0" y="340" text-anchor="middle" font-size="10" fill="#6b7280" transform="rotate(-45 580.0 340)">2026-09-30</text>
<text x="590.0" y="340" text-anchor="middle" font-size="10" fill="#6b7280" transform="rotate(-45 590.0 340)">2026-10-01</text>
<text x="600.0" y="340" text-anchor="middle" font-size="10" fill="#6b7280" transform="rotate(-45 600.0 340)">2026-10-02</text>
<text x="610.0" y="340" text-anchor="middle" font-size="10" fill="#6b7280" transform="rotate(-45 610.0 340)">2026-10-03</text>
<text x="620.0" y="340" text-anchor="middle" font-size="10" fill="#6b7280" transform="rotate(-45 620.0 340)">2026-10-04</text>
<text x="630.0" y="340" text-anchor="middle" font-size="10" fill="#6b7280" transform="rotate(-45 630.0 340)">2026-10-05</text>
<text x="640.0" y="340" text-anchor="middle" font-size="10" fill="#6b7280" transform="rotate(-45 640.0 340)">2026-10-06</text>
<text x="650.0" y="340" text-anchor="middle" font-size="10" fill="#6b7280" transform="rotate(-45 650.0 340)">2026-10-07</text>
<polyline points="60.0,299.0989847715736 70.0,293.78807106598987 80.0,293.4454314720812 90.0,292.93147208121826 100.0,292.41751269035535 110.0,289.505076142132 120.0,288.30583756345175 130.0,287.2779187817259 140.0,285.39340101522845 150.0,283.6802030456853 160.0,280.4251269035533 170.0,278.1979695431472 180.0,276.8274111675127 190.0,271.85913705583755 200.0,268.6040609137056 210.0,266.3769035532995 220.0,264.49238578680206 230.0,260.7233502538071 240.0,249.0736040609137 249.99999999999997,246.50380710659897 260.0,243.76269035532994 270.0,236.39593908629442 280.0,225.7741116751269 290.0,222.51903553299493 300.0,219.43527918781726 310.0,212.41116751269038 320.0,195.7931472081218 330.0,192.19543147208122 340.0,189.7969543147208 350.0,184.82868020304568 360.0,172.66497461928932 370.0,169.58121827411168 380.0,159.81598984771574 390.0,155.19035532994926 400.0,149.87944162436548 410.0,142.51269035532994 420.0,138.2296954314721 430.0,133.09010152284264 439.99999999999994,124.18147208121826 450.0,119.04187817258884 460.0,109.96192893401013 470.0,94.71446700507616 480.0,63.70558375634516 489.99999999999994,53.255076142132 500.0,53.083756345177676 510.0,53.083756345177676 520.0,52.39847715736039 530.0,52.055837563451746 540.0,51.71319796954316 550.0,51.199238578680195 560.0,51.199238578680195 570.0,50.513959390862965 580.0,50.17131979695432 590.0,50.17131979695432 600.0,50.0 610.0,50.0 620.0,50.0 630.0,50.0 640.0,50.0 650.0,50.0" fill="none" stroke="#2563eb" stroke-width="2"/>
<circle cx="60.0" cy="299.0989847715736" r="4" fill="#2563eb"/>
<text x="60.0" y="291.0989847715736" text-anchor="middle" font-size="9" fill="#2563eb">122</text>
<circle cx="70.0" cy="293.78807106598987" r="4" fill="#2563eb"/>
<text x="70.0" y="285.78807106598987" text-anchor="middle" font-size="9" fill="#2563eb">153</text>
<circle cx="80.0" cy="293.4454314720812" r="4" fill="#2563eb"/>
<text x="80.0" y="285.4454314720812" text-anchor="middle" font-size="9" fill="#2563eb">155</text>
<circle cx="90.0" cy="292.93147208121826" r="4" fill="#2563eb"/>
<text x="90.0" y="284.93147208121826" text-anchor="middle" font-size="9" fill="#2563eb">158</text>
<circle cx="100.0" cy="292.41751269035535" r="4" fill="#2563eb"/>
<text x="100.0" y="284.41751269035535" text-anchor="middle" font-size="9" fill="#2563eb">161</text>
<circle cx="110.0" cy="289.505076142132" r="4" fill="#2563eb"/>
<text x="110.0" y="281.505076142132" text-anchor="middle" font-size="9" fill="#2563eb">178</text>
<circle cx="120.0" cy="288.30583756345175" r="4" fill="#2563eb"/>
<text x="120.0" y="280.30583756345175" text-anchor="middle" font-size="9" fill="#2563eb">185</text>
<circle cx="130.0" cy="287.2779187817259" r="4" fill="#2563eb"/>
<text x="130.0" y="279.2779187817259" text-anchor="middle" font-size="9" fill="#2563eb">191</text>
<circle cx="140.0" cy="285.39340101522845" r="4" fill="#2563eb"/>
<text x="140.0" y="277.39340101522845" text-anchor="middle" font-size="9" fill="#2563eb">202</text>
<circle cx="150.0" cy="283.6802030456853" r="4" fill="#2563eb"/>
<text x="150.0" y="275.6802030456853" text-anchor="middle" font-size="9" fill="#2563eb">212</text>
<circle cx="160.0" cy="280.4251269035533" r="4" fill="#2563eb"/>
<text x="160.0" y="272.4251269035533" text-anchor="middle" font-size="9" fill="#2563eb">231</text>
<circle cx="170.0" cy="278.1979695431472" r="4" fill="#2563eb"/>
<text x="170.0" y="270.1979695431472" text-anchor="middle" font-size="9" fill="#2563eb">244</text>
<circle cx="180.0" cy="276.8274111675127" r="4" fill="#2563eb"/>
<text x="180.0" y="268.8274111675127" text-anchor="middle" font-size="9" fill="#2563eb">252</text>
<circle cx="190.0" cy="271.85913705583755" r="4" fill="#2563eb"/>
<text x="190.0" y="263.85913705583755" text-anchor="middle" font-size="9" fill="#2563eb">281</text>
<circle cx="200.0" cy="268.6040609137056" r="4" fill="#2563eb"/>
<text x="200.0" y="260.6040609137056" text-anchor="middle" font-size="9" fill="#2563eb">300</text>
<circle cx="210.0" cy="266.3769035532995" r="4" fill="#2563eb"/>
<text x="210.0" y="258.3769035532995" text-anchor="middle" font-size="9" fill="#2563eb">313</text>
<circle cx="220.0" cy="264.49238578680206" r="4" fill="#2563eb"/>
<text x="220.0" y="256.49238578680206" text-anchor="middle" font-size="9" fill="#2563eb">324</text>
<circle cx="230.0" cy="260.7233502538071" r="4" fill="#2563eb"/>
<text x="230.0" y="252.7233502538071" text-anchor="middle" font-size="9" fill="#2563eb">346</text>
<circle cx="240.0" cy="249.0736040609137" r="4" fill="#2563eb"/>
<text x="240.0" y="241.0736040609137" text-anchor="middle" font-size="9" fill="#2563eb">414</text>
<circle cx="249.99999999999997" cy="246.50380710659897" r="4" fill="#2563eb"/>
<text x="249.99999999999997" y="238.50380710659897" text-anchor="middle" font-size="9" fill="#2563eb">429</text>
<circle cx="260.0" cy="243.76269035532994" r="4" fill="#2563eb"/>
<text x="260.0" y="235.76269035532994" text-anchor="middle" font-size="9" fill="#2563eb">445</text>
<circle cx="270.0" cy="236.39593908629442" r="4" fill="#2563eb"/>
<text x="270.0" y="228.39593908629442" text-anchor="middle" font-size="9" fill="#2563eb">488</text>
<circle cx="280.0" cy="225.7741116751269" r="4" fill="#2563eb"/>
<text x="280.0" y="217.7741116751269" text-anchor="middle" font-size="9" fill="#2563eb">550</text>
<circle cx="290.0" cy="222.51903553299493" r="4" fill="#2563eb"/>
<text x="290.0" y="214.51903553299493" text-anchor="middle" font-size="9" fill="#2563eb">569</text>
<circle cx="300.0" cy="219.43527918781726" r="4" fill="#2563eb"/>
<text x="300.0" y="211.43527918781726" text-anchor="middle" font-size="9" fill="#2563eb">587</text>
<circle cx="310.0" cy="212.41116751269038" r="4" fill="#2563eb"/>
<text x="310.0" y="204.41116751269038" text-anchor="middle" font-size="9" fill="#2563eb">628</text>
<circle cx="320.0" cy="195.7931472081218" r="4" fill="#2563eb"/>
<text x="320.0" y="187.7931472081218" text-anchor="middle" font-size="9" fill="#2563eb">725</text>
<circle cx="330.0" cy="192.19543147208122" r="4" fill="#2563eb"/>
<text x="330.0" y="184.19543147208122" text-anchor="middle" font-size="9" fill="#2563eb">746</text>
<circle cx="340.0" cy="189.7969543147208" r="4" fill="#2563eb"/>
<text x="340.0" y="181.7969543147208" text-anchor="middle" font-size="9" fill="#2563eb">760</text>
<circle cx="350.0" cy="184.82868020304568" r="4" fill="#2563eb"/>
<text x="350.0" y="176.82868020304568" text-anchor="middle" font-size="9" fill="#2563eb">789</text>
<circle cx="360.0" cy="172.66497461928932" r="4" fill="#2563eb"/>
<text x="360.0" y="164.66497461928932" text-anchor="middle" font-size="9" fill="#2563eb">860</text>
<circle cx="370.0" cy="169.58121827411168" r="4" fill="#2563eb"/>
<text x="370.0" y="161.58121827411168" text-anchor="middle" font-size="9" fill="#2563eb">878</text>
<circle cx="380.0" cy="159.81598984771574" r="4" fill="#2563eb"/>
<text x="380.0" y="151.81598984771574" text-anchor="middle" font-size="9" fill="#2563eb">935</text>
<circle cx="390.0" cy="155.19035532994926" r="4" fill="#2563eb"/>
<text x="390.0" y="147.19035532994926" text-anchor="middle" font-size="9" fill="#2563eb">962</text>
<circle cx="400.0" cy="149.87944162436548" r="4" fill="#2563eb"/>
<text x="400.0" y="141.87944162436548" text-anchor="middle" font-size="9" fill="#2563eb">993</text>
<circle cx="410.0" cy="142.51269035532994" r="4" fill="#2563eb"/>
<text x="410.0" y="134.51269035532994" text-anchor="middle" font-size="9" fill="#2563eb">1036</text>
<circle cx="420.0" cy="138.2296954314721" r="4" fill="#2563eb"/>
<text x="420.0" y="130.2296954314721" text-anchor="middle" font-size="9" fill="#2563eb">1061</text>
<circle cx="430.0" cy="133.09010152284264" r="4" fill="#2563eb"/>
<text x="430.0" y="125.09010152284264" text-anchor="middle" font-size="9" fill="#2563eb">1091</text>
<circle cx="439.99999999999994" cy="124.18147208121826" r="4" fill="#2563eb"/>
<text x="439.99999999999994" y="116.18147208121826" text-anchor="middle" font-size="9" fill="#2563eb">1143</text>
<circle cx="450.0" cy="119.04187817258884" r="4" fill="#2563eb"/>
<text x="450.0" y="111.04187817258884" text-anchor="middle" font-size="9" fill="#2563eb">1173</text>
<circle cx="460.0" cy="109.96192893401013" r="4" fill="#2563eb"/>
<text x="460.0" y="101.96192893401013" text-anchor="middle" font-size="9" fill="#2563eb">1226</text>
<circle cx="470.0" cy="94.71446700507616" r="4" fill="#2563eb"/>
<text x="470.0" y="86.71446700507616" text-anchor="middle" font-size="9" fill="#2563eb">1315</text>
<circle cx="480.0" cy="63.70558375634516" r="4" fill="#2563eb"/>
<text x="480.0" y="55.70558375634516" text-anchor="middle" font-size="9" fill="#2563eb">1496</text>
<circle cx="489.99999999999994" cy="53.255076142132" r="4" fill="#2563eb"/>
<text x="489.99999999999994" y="45.255076142132" text-anchor="middle" font-size="9" fill="#2563eb">1557</text>
<circle cx="500.0" cy="53.083756345177676" r="4" fill="#2563eb"/>
<text x="500.0" y="45.083756345177676" text-anchor="middle" font-size="9" fill="#2563eb">1558</text>
<circle cx="510.0" cy="53.083756345177676" r="4" fill="#2563eb"/>
<text x="510.0" y="45.083756345177676" text-anchor="middle" font-size="9" fill="#2563eb">1558</text>
<circle cx="520.0" cy="52.39847715736039" r="4" fill="#2563eb"/>
<text x="520.0" y="44.39847715736039" text-anchor="middle" font-size="9" fill="#2563eb">1562</text>
<circle cx="530.0" cy="52.055837563451746" r="4" fill="#2563eb"/>
<text x="530.0" y="44.055837563451746" text-anchor="middle" font-size="9" fill="#2563eb">1564</text>
<circle cx="540.0" cy="51.71319796954316" r="4" fill="#2563eb"/>
<text x="540.0" y="43.71319796954316" text-anchor="middle" font-size="9" fill="#2563eb">1566</text>
<circle cx="550.0" cy="51.199238578680195" r="4" fill="#2563eb"/>
<text x="550.0" y="43.199238578680195" text-anchor="middle" font-size="9" fill="#2563eb">1569</text>
<circle cx="560.0" cy="51.199238578680195" r="4" fill="#2563eb"/>
<text x="560.0" y="43.199238578680195" text-anchor="middle" font-size="9" fill="#2563eb">1569</text>
<circle cx="570.0" cy="50.513959390862965" r="4" fill="#2563eb"/>
<text x="570.0" y="42.513959390862965" text-anchor="middle" font-size="9" fill="#2563eb">1573</text>
<circle cx="580.0" cy="50.17131979695432" r="4" fill="#2563eb"/>
<text x="580.0" y="42.17131979695432" text-anchor="middle" font-size="9" fill="#2563eb">1575</text>
<circle cx="590.0" cy="50.17131979695432" r="4" fill="#2563eb"/>
<text x="590.0" y="42.17131979695432" text-anchor="middle" font-size="9" fill="#2563eb">1575</text>
<circle cx="600.0" cy="50.0" r="4" fill="#2563eb"/>
<text x="600.0" y="42.0" text-anchor="middle" font-size="9" fill="#2563eb">1576</text>
<circle cx="610.0" cy="50.0" r="4" fill="#2563eb"/>
<text x="610.0" y="42.0" text-anchor="middle" font-size="9" fill="#2563eb">1576</text>
<circle cx="620.0" cy="50.0" r="4" fill="#2563eb"/>
<text x="620.0" y="42.0" text-anchor="middle" font-size="9" fill="#2563eb">1576</text>
<circle cx="630.0" cy="50.0" r="4" fill="#2563eb"/>
<text x="630.0" y="42.0" text-anchor="middle" font-size="9" fill="#2563eb">1576</text>
<circle cx="640.0" cy="50.0" r="4" fill="#2563eb"/>
<text x="640.0" y="42.0" text-anchor="middle" font-size="9" fill="#2563eb">1576</text>
<circle cx="650.0" cy="50.0" r="4" fill="#2563eb"/>
<text x="650.0" y="42.0" text-anchor="middle" font-size="9" fill="#2563eb">1576</text>
<line x1="670" y1="70" x2="690" y2="70" stroke="#2563eb" stroke-width="2"/>
<text x="695" y="74" font-size="11" fill="#2563eb">PR</text>
<polyline points="60.0,312.9758883248731 70.0,312.9758883248731 80.0,312.9758883248731 90.0,312.9758883248731 100.0,312.9758883248731 110.0,312.63324873096445 120.0,312.63324873096445 130.0,312.63324873096445 140.0,312.63324873096445 150.0,312.46192893401013 160.0,312.2906091370558 170.0,312.2906091370558 180.0,312.2906091370558 190.0,312.2906091370558 200.0,312.2906091370558 210.0,312.2906091370558 220.0,312.2906091370558 230.0,312.2906091370558 240.0,312.2906091370558 249.99999999999997,312.2906091370558 260.0,312.2906091370558 270.0,312.2906091370558 280.0,312.2906091370558 290.0,312.2906091370558 300.0,312.2906091370558 310.0,312.2906091370558 320.0,312.2906091370558 330.0,312.2906091370558 340.0,312.2906091370558 350.0,312.2906091370558 360.0,312.2906091370558 370.0,312.2906091370558 380.0,312.2906091370558 390.0,312.2906091370558 400.0,312.2906091370558 410.0,312.2906091370558 420.0,312.2906091370558 430.0,312.2906091370558 439.99999999999994,312.2906091370558 450.0,312.2906091370558 460.0,312.2906091370558 470.0,312.2906091370558 480.0,312.2906091370558 489.99999999999994,312.2906091370558 500.0,312.2906091370558 510.0,312.2906091370558 520.0,312.2906091370558 530.0,312.2906091370558 540.0,312.2906091370558 550.0,312.2906091370558 560.0,312.2906091370558 570.0,312.2906091370558 580.0,312.2906091370558 590.0,312.2906091370558 600.0,312.2906091370558 610.0,312.2906091370558 620.0,312.2906091370558 630.0,312.2906091370558 640.0,312.2906091370558 650.0,312.2906091370558" fill="none" stroke="#dc2626" stroke-width="2"/>
<circle cx="60.0" cy="312.9758883248731" r="4" fill="#dc2626"/>
<text x="60.0" y="304.9758883248731" text-anchor="middle" font-size="9" fill="#dc2626">41</text>
<circle cx="70.0" cy="312.9758883248731" r="4" fill="#dc2626"/>
<text x="70.0" y="304.9758883248731" text-anchor="middle" font-size="9" fill="#dc2626">41</text>
<circle cx="80.0" cy="312.9758883248731" r="4" fill="#dc2626"/>
<text x="80.0" y="304.9758883248731" text-anchor="middle" font-size="9" fill="#dc2626">41</text>
<circle cx="90.0" cy="312.9758883248731" r="4" fill="#dc2626"/>
<text x="90.0" y="304.9758883248731" text-anchor="middle" font-size="9" fill="#dc2626">41</text>
<circle cx="100.0" cy="312.9758883248731" r="4" fill="#dc2626"/>
<text x="100.0" y="304.9758883248731" text-anchor="middle" font-size="9" fill="#dc2626">41</text>
<circle cx="110.0" cy="312.63324873096445" r="4" fill="#dc2626"/>
<text x="110.0" y="304.63324873096445" text-anchor="middle" font-size="9" fill="#dc2626">43</text>
<circle cx="120.0" cy="312.63324873096445" r="4" fill="#dc2626"/>
<text x="120.0" y="304.63324873096445" text-anchor="middle" font-size="9" fill="#dc2626">43</text>
<circle cx="130.0" cy="312.63324873096445" r="4" fill="#dc2626"/>
<text x="130.0" y="304.63324873096445" text-anchor="middle" font-size="9" fill="#dc2626">43</text>
<circle cx="140.0" cy="312.63324873096445" r="4" fill="#dc2626"/>
<text x="140.0" y="304.63324873096445" text-anchor="middle" font-size="9" fill="#dc2626">43</text>
<circle cx="150.0" cy="312.46192893401013" r="4" fill="#dc2626"/>
<text x="150.0" y="304.46192893401013" text-anchor="middle" font-size="9" fill="#dc2626">44</text>
<circle cx="160.0" cy="312.2906091370558" r="4" fill="#dc2626"/>
<text x="160.0" y="304.2906091370558" text-anchor="middle" font-size="9" fill="#dc2626">45</text>
<circle cx="170.0" cy="312.2906091370558" r="4" fill="#dc2626"/>
<text x="170.0" y="304.2906091370558" text-anchor="middle" font-size="9" fill="#dc2626">45</text>
<circle cx="180.0" cy="312.2906091370558" r="4" fill="#dc2626"/>
<text x="180.0" y="304.2906091370558" text-anchor="middle" font-size="9" fill="#dc2626">45</text>
<circle cx="190.0" cy="312.2906091370558" r="4" fill="#dc2626"/>
<text x="190.0" y="304.2906091370558" text-anchor="middle" font-size="9" fill="#dc2626">45</text>
<circle cx="200.0" cy="312.2906091370558" r="4" fill="#dc2626"/>
<text x="200.0" y="304.2906091370558" text-anchor="middle" font-size="9" fill="#dc2626">45</text>
<circle cx="210.0" cy="312.2906091370558" r="4" fill="#dc2626"/>
<text x="210.0" y="304.2906091370558" text-anchor="middle" font-size="9" fill="#dc2626">45</text>
<circle cx="220.0" cy="312.2906091370558" r="4" fill="#dc2626"/>
<text x="220.0" y="304.2906091370558" text-anchor="middle" font-size="9" fill="#dc2626">45</text>
<circle cx="230.0" cy="312.2906091370558" r="4" fill="#dc2626"/>
<text x="230.0" y="304.2906091370558" text-anchor="middle" font-size="9" fill="#dc2626">45</text>
<circle cx="240.0" cy="312.2906091370558" r="4" fill="#dc2626"/>
<text x="240.0" y="304.2906091370558" text-anchor="middle" font-size="9" fill="#dc2626">45</text>
<circle cx="249.99999999999997" cy="312.2906091370558" r="4" fill="#dc2626"/>
<text x="249.99999999999997" y="304.2906091370558" text-anchor="middle" font-size="9" fill="#dc2626">45</text>
<circle cx="260.0" cy="312.2906091370558" r="4" fill="#dc2626"/>
<text x="260.0" y="304.2906091370558" text-anchor="middle" font-size="9" fill="#dc2626">45</text>
<circle cx="270.0" cy="312.2906091370558" r="4" fill="#dc2626"/>
<text x="270.0" y="304.2906091370558" text-anchor="middle" font-size="9" fill="#dc2626">45</text>
<circle cx="280.0" cy="312.2906091370558" r="4" fill="#dc2626"/>
<text x="280.0" y="304.2906091370558" text-anchor="middle" font-size="9" fill="#dc2626">45</text>
<circle cx="290.0" cy="312.2906091370558" r="4" fill="#dc2626"/>
<text x="290.0" y="304.2906091370558" text-anchor="middle" font-size="9" fill="#dc2626">45</text>
<circle cx="300.0" cy="312.2906091370558" r="4" fill="#dc2626"/>
<text x="300.0" y="304.2906091370558" text-anchor="middle" font-size="9" fill="#dc2626">45</text>
<circle cx="310.0" cy="312.2906091370558" r="4" fill="#dc2626"/>
<text x="310.0" y="304.2906091370558" text-anchor="middle" font-size="9" fill="#dc2626">45</text>
<circle cx="320.0" cy="312.2906091370558" r="4" fill="#dc2626"/>
<text x="320.0" y="304.2906091370558" text-anchor="middle" font-size="9" fill="#dc2626">45</text>
<circle cx="330.0" cy="312.2906091370558" r="4" fill="#dc2626"/>
<text x="330.0" y="304.2906091370558" text-anchor="middle" font-size="9" fill="#dc2626">45</text>
<circle cx="340.0" cy="312.2906091370558" r="4" fill="#dc2626"/>
<text x="340.0" y="304.2906091370558" text-anchor="middle" font-size="9" fill="#dc2626">45</text>
<circle cx="350.0" cy="312.2906091370558" r="4" fill="#dc2626"/>
<text x="350.0" y="304.2906091370558" text-anchor="middle" font-size="9" fill="#dc2626">45</text>
<circle cx="360.0" cy="312.2906091370558" r="4" fill="#dc2626"/>
<text x="360.0" y="304.2906091370558" text-anchor="middle" font-size="9" fill="#dc2626">45</text>
<circle cx="370.0" cy="312.2906091370558" r="4" fill="#dc2626"/>
<text x="370.0" y="304.2906091370558" text-anchor="middle" font-size="9" fill="#dc2626">45</text>
<circle cx="380.0" cy="312.2906091370558" r="4" fill="#dc2626"/>
<text x="380.0" y="304.2906091370558" text-anchor="middle" font-size="9" fill="#dc2626">45</text>
<circle cx="390.0" cy="312.2906091370558" r="4" fill="#dc2626"/>
<text x="390.0" y="304.2906091370558" text-anchor="middle" font-size="9" fill="#dc2626">45</text>
<circle cx="400.0" cy="312.2906091370558" r="4" fill="#dc2626"/>
<text x="400.0" y="304.2906091370558" text-anchor="middle" font-size="9" fill="#dc2626">45</text>
<circle cx="410.0" cy="312.2906091370558" r="4" fill="#dc2626"/>
<text x="410.0" y="304.2906091370558" text-anchor="middle" font-size="9" fill="#dc2626">45</text>
<circle cx="420.0" cy="312.2906091370558" r="4" fill="#dc2626"/>
<text x="420.0" y="304.2906091370558" text-anchor="middle" font-size="9" fill="#dc2626">45</text>
<circle cx="430.0" cy="312.2906091370558" r="4" fill="#dc2626"/>
<text x="430.0" y="304.2906091370558" text-anchor="middle" font-size="9" fill="#dc2626">45</text>
<circle cx="439.99999999999994" cy="312.2906091370558" r="4" fill="#dc2626"/>
<text x="439.99999999999994" y="304.2906091370558" text-anchor="middle" font-size="9" fill="#dc2626">45</text>
<circle cx="450.0" cy="312.2906091370558" r="4" fill="#dc2626"/>
<text x="450.0" y="304.2906091370558" text-anchor="middle" font-size="9" fill="#dc2626">45</text>
<circle cx="460.0" cy="312.2906091370558" r="4" fill="#dc2626"/>
<text x="460.0" y="304.2906091370558" text-anchor="middle" font-size="9" fill="#dc2626">45</text>
<circle cx="470.0" cy="312.2906091370558" r="4" fill="#dc2626"/>
<text x="470.0" y="304.2906091370558" text-anchor="middle" font-size="9" fill="#dc2626">45</text>
<circle cx="480.0" cy="312.2906091370558" r="4" fill="#dc2626"/>
<text x="480.0" y="304.2906091370558" text-anchor="middle" font-size="9" fill="#dc2626">45</text>
<circle cx="489.99999999999994" cy="312.2906091370558" r="4" fill="#dc2626"/>
<text x="489.99999999999994" y="304.2906091370558" text-anchor="middle" font-size="9" fill="#dc2626">45</text>
<circle cx="500.0" cy="312.2906091370558" r="4" fill="#dc2626"/>
<text x="500.0" y="304.2906091370558" text-anchor="middle" font-size="9" fill="#dc2626">45</text>
<circle cx="510.0" cy="312.2906091370558" r="4" fill="#dc2626"/>
<text x="510.0" y="304.2906091370558" text-anchor="middle" font-size="9" fill="#dc2626">45</text>
<circle cx="520.0" cy="312.2906091370558" r="4" fill="#dc2626"/>
<text x="520.0" y="304.2906091370558" text-anchor="middle" font-size="9" fill="#dc2626">45</text>
<circle cx="530.0" cy="312.2906091370558" r="4" fill="#dc2626"/>
<text x="530.0" y="304.2906091370558" text-anchor="middle" font-size="9" fill="#dc2626">45</text>
<circle cx="540.0" cy="312.2906091370558" r="4" fill="#dc2626"/>
<text x="540.0" y="304.2906091370558" text-anchor="middle" font-size="9" fill="#dc2626">45</text>
<circle cx="550.0" cy="312.2906091370558" r="4" fill="#dc2626"/>
<text x="550.0" y="304.2906091370558" text-anchor="middle" font-size="9" fill="#dc2626">45</text>
<circle cx="560.0" cy="312.2906091370558" r="4" fill="#dc2626"/>
<text x="560.0" y="304.2906091370558" text-anchor="middle" font-size="9" fill="#dc2626">45</text>
<circle cx="570.0" cy="312.2906091370558" r="4" fill="#dc2626"/>
<text x="570.0" y="304.2906091370558" text-anchor="middle" font-size="9" fill="#dc2626">45</text>
<circle cx="580.0" cy="312.2906091370558" r="4" fill="#dc2626"/>
<text x="580.0" y="304.2906091370558" text-anchor="middle" font-size="9" fill="#dc2626">45</text>
<circle cx="590.0" cy="312.2906091370558" r="4" fill="#dc2626"/>
<text x="590.0" y="304.2906091370558" text-anchor="middle" font-size="9" fill="#dc2626">45</text>
<circle cx="600.0" cy="312.2906091370558" r="4" fill="#dc2626"/>
<text x="600.0" y="304.2906091370558" text-anchor="middle" font-size="9" fill="#dc2626">45</text>
<circle cx="610.0" cy="312.2906091370558" r="4" fill="#dc2626"/>
<text x="610.0" y="304.2906091370558" text-anchor="middle" font-size="9" fill="#dc2626">45</text>
<circle cx="620.0" cy="312.2906091370558" r="4" fill="#dc2626"/>
<text x="620.0" y="304.2906091370558" text-anchor="middle" font-size="9" fill="#dc2626">45</text>
<circle cx="630.0" cy="312.2906091370558" r="4" fill="#dc2626"/>
<text x="630.0" y="304.2906091370558" text-anchor="middle" font-size="9" fill="#dc2626">45</text>
<circle cx="640.0" cy="312.2906091370558" r="4" fill="#dc2626"/>
<text x="640.0" y="304.2906091370558" text-anchor="middle" font-size="9" fill="#dc2626">45</text>
<circle cx="650.0" cy="312.2906091370558" r="4" fill="#dc2626"/>
<text x="650.0" y="304.2906091370558" text-anchor="middle" font-size="9" fill="#dc2626">45</text>
<line x1="670" y1="90" x2="690" y2="90" stroke="#dc2626" stroke-width="2"/>
<text x="695" y="94" font-size="11" fill="#dc2626">Issue</text>
</svg>