<svg xmlns="http://www.w3.org/2000/svg" viewBox="0 0 800 400">
<rect width="800" height="400" fill="white"/>
<text x="400" y="30" text-anchor="middle" font-size="16" font-weight="bold">PR & Issue 数量趋势</text>
<line x1="60" y1="320.0" x2="650" y2="320.0" stroke="#e5e7eb" stroke-width="1"/>
<text x="50" y="324.0" text-anchor="end" font-size="11" fill="#6b7280">0</text>
<line x1="60" y1="252.5" x2="650" y2="252.5" stroke="#e5e7eb" stroke-width="1"/>
<text x="50" y="256.5" text-anchor="end" font-size="11" fill="#6b7280">232</text>
<line x1="60" y1="185.0" x2="650" y2="185.0" stroke="#e5e7eb" stroke-width="1"/>
<text x="50" y="189.0" text-anchor="end" font-size="11" fill="#6b7280">465</text>
<line x1="60" y1="117.5" x2="650" y2="117.5" stroke="#e5e7eb" stroke-width="1"/>
<text x="50" y="121.5" text-anchor="end" font-size="11" fill="#6b7280">697</text>
<line x1="60" y1="50.0" x2="650" y2="50.0" stroke="#e5e7eb" stroke-width="1"/>
<text x="50" y="54.0" text-anchor="end" font-size="11" fill="#6b7280">930</text>
<text x="60.0" y="340" text-anchor="middle" font-size="10" fill="#6b7280" transform="rotate(-45 60.0 340)">2026-07-17</text>
<text x="78.4375" y="340" text-anchor="middle" font-size="10" fill="#6b7280" transform="rotate(-45 78.4375 340)">2026-07-20</text>
<text x="96.875" y="340" text-anchor="middle" font-size="10" fill="#6b7280" transform="rotate(-45 96.875 340)">2026-07-21</text>
<text x="115.3125" y="340" text-anchor="middle" font-size="10" fill="#6b7280" transform="rotate(-45 115.3125 340)">2026-07-22</text>
<text x="133.75" y="340" text-anchor="middle" font-size="10" fill="#6b7280" transform="rotate(-45 133.75 340)">2026-07-23</text>
<text x="152.1875" y="340" text-anchor="middle" font-size="10" fill="#6b7280" transform="rotate(-45 152.1875 340)">2026-07-27</text>
<text x="170.625" y="340" text-anchor="middle" font-size="10" fill="#6b7280" transform="rotate(-45 170.625 340)">2026-07-28</text>
<text x="189.0625" y="340" text-anchor="middle" font-size="10" fill="#6b7280" transform="rotate(-45 189.0625 340)">2026-07-29</text>
<text x="207.5" y="340" text-anchor="middle" font-size="10" fill="#6b7280" transform="rotate(-45 207.5 340)">2026-07-30</text>
<text x="225.9375" y="340" text-anchor="middle" font-size="10" fill="#6b7280" transform="rotate(-45 225.9375 340)">2026-07-31</text>
<text x="244.375" y="340" text-anchor="middle" font-size="10" fill="#6b7280" transform="rotate(-45 244.375 340)">2026-08-03</text>
<text x="262.8125" y="340" text-anchor="middle" font-size="10" fill="#6b7280" transform="rotate(-45 262.8125 340)">2026-08-05</text>
<text x="281.25" y="340" text-anchor="middle" font-size="10" fill="#6b7280" transform="rotate(-45 281.25 340)">2026-08-06</text>
<text x="299.6875" y="340" text-anchor="middle" font-size="10" fill="#6b7280" transform="rotate(-45 299.6875 340)">2026-08-10</text>
<text x="318.125" y="340" text-anchor="middle" font-size="10" fill="#6b7280" transform="rotate(-45 318.125 340)">2026-08-11</text>
<text x="336.5625" y="340" text-anchor="middle" font-size="10" fill="#6b7280" transform="rotate(-45 336.5625 340)">2026-08-12</text>
<text x="355.0" y="340" text-anchor="middle" font-size="10" fill="#6b7280" transform="rotate(-45 355.0 340)">2026-08-13</text>
<text x="373.4375" y="340" text-anchor="middle" font-size="10" fill="#6b7280" transform="rotate(-45 373.4375 340)">2026-08-14</text>
<text x="391.875" y="340" text-anchor="middle" font-size="10" fill="#6b7280" transform="rotate(-45 391.875 340)">2026-08-17</text>
<text x="410.3125" y="340" text-anchor="middle" font-size="10" fill="#6b7280" transform="rotate(-45 410.3125 340)">2026-08-18</text>
<text x="428.75" y="340" text-anchor="middle" font-size="10" fill="#6b7280" transform="rotate(-45 428.75 340)">2026-08-19</text>
<text x="447.1875" y="340" text-anchor="middle" font-size="10" fill="#6b7280" transform="rotate(-45 447.1875 340)">2026-08-21</text>
<text x="465.625" y="340" text-anchor="middle" font-size="10" fill="#6b7280" transform="rotate(-45 465.625 340)">2026-08-24</text>
<text x="484.0625" y="340" text-anchor="middle" font-size="10" fill="#6b7280" transform="rotate(-45 484.0625 340)">2026-08-25</text>
<text x="502.5" y="340" text-anchor="middle" font-size="10" fill="#6b7280" transform="rotate(-45 502.5 340)">2026-08-26</text>
<text x="520.9375" y="340" text-anchor="middle" font-size="10" fill="#6b7280" transform="rotate(-45 520.9375 340)">2026-08-28</text>
<text x="539.375" y="340" text-anchor="middle" font-size="10" fill="#6b7280" transform="rotate(-45 539.375 340)">2026-08-31</text>
<text x="557.8125" y="340" text-anchor="middle" font-size="10" fill="#6b7280" transform="rotate(-45 557.8125 340)">2026-09-01</text>
<text x="576.25" y="340" text-anchor="middle" font-size="10" fill="#6b7280" transform="rotate(-45 576.25 340)">2026-09-02</text>
<text x="594.6875" y="340" text-anchor="middle" font-size="10" fill="#6b7280" transform="rotate(-45 594.6875 340)">2026-09-04</text>
<text x="613.125" y="340" text-anchor="middle" font-size="10" fill="#6b7280" transform="rotate(-45 613.125 340)">2026-09-07</text>
<text x="631.5625" y="340" text-anchor="middle" font-size="10" fill="#6b7280" transform="rotate(-45 631.5625 340)">2026-09-08</text>
<text x="650.0" y="340" text-anchor="middle" font-size="10" fill="#6b7280" transform="rotate(-45 650.0 340)">2026-09-10</text>
<polyline points="60.0,284.5806451612903 78.4375,275.5806451612903 96.875,275.0 115.3125,274.1290322580645 133.75,273.258064516129 152.1875,268.3225806451613 170.625,266.2903225806452 189.0625,264.5483870967742 207.5,261.35483870967744 225.9375,258.4516129032258 244.375,252.93548387096774 262.8125,249.16129032258064 281.25,246.83870967741933 299.6875,238.4193548387097 318.125,232.90322580645162 336.5625,229.1290322580645 355.0,225.93548387096774 373.4375,219.5483870967742 391.875,199.80645161290323 410.3125,195.4516129032258 428.75,190.80645161290323 447.1875,178.32258064516128 465.625,160.32258064516128 484.0625,154.80645161290323 502.5,149.5806451612903 520.9375,137.6774193548387 539.375,109.51612903225808 557.8125,103.4193548387097 576.25,99.35483870967741 594.6875,90.93548387096774 613.125,70.32258064516131 631.5625,65.09677419354838 650.0,50.0" fill="none" stroke="#2563eb" stroke-width="2"/>
<circle cx="60.0" cy="284.5806451612903" r="4" fill="#2563eb"/>
<text x="60.0" y="276.5806451612903" text-anchor="middle" font-size="9" fill="#2563eb">122</text>
<circle cx="78.4375" cy="275.5806451612903" r="4" fill="#2563eb"/>
<text x="78.4375" y="267.5806451612903" text-anchor="middle" font-size="9" fill="#2563eb">153</text>
<circle cx="96.875" cy="275.0" r="4" fill="#2563eb"/>
<text x="96.875" y="267.0" text-anchor="middle" font-size="9" fill="#2563eb">155</text>
<circle cx="115.3125" cy="274.1290322580645" r="4" fill="#2563eb"/>
<text x="115.3125" y="266.1290322580645" text-anchor="middle" font-size="9" fill="#2563eb">158</text>
<circle cx="133.75" cy="273.258064516129" r="4" fill="#2563eb"/>
<text x="133.75" y="265.258064516129" text-anchor="middle" font-size="9" fill="#2563eb">161</text>
<circle cx="152.1875" cy="268.3225806451613" r="4" fill="#2563eb"/>
<text x="152.1875" y="260.3225806451613" text-anchor="middle" font-size="9" fill="#2563eb">178</text>
<circle cx="170.625" cy="266.2903225806452" r="4" fill="#2563eb"/>
<text x="170.625" y="258.2903225806452" text-anchor="middle" font-size="9" fill="#2563eb">185</text>
<circle cx="189.0625" cy="264.5483870967742" r="4" fill="#2563eb"/>
<text x="189.0625" y="256.5483870967742" text-anchor="middle" font-size="9" fill="#2563eb">191</text>
<circle cx="207.5" cy="261.35483870967744" r="4" fill="#2563eb"/>
<text x="207.5" y="253.35483870967744" text-anchor="middle" font-size="9" fill="#2563eb">202</text>
<circle cx="225.9375" cy="258.4516129032258" r="4" fill="#2563eb"/>
<text x="225.9375" y="250.4516129032258" text-anchor="middle" font-size="9" fill="#2563eb">212</text>
<circle cx="244.375" cy="252.93548387096774" r="4" fill="#2563eb"/>
<text x="244.375" y="244.93548387096774" text-anchor="middle" font-size="9" fill="#2563eb">231</text>
<circle cx="262.8125" cy="249.16129032258064" r="4" fill="#2563eb"/>
<text x="262.8125" y="241.16129032258064" text-anchor="middle" font-size="9" fill="#2563eb">244</text>
<circle cx="281.25" cy="246.83870967741933" r="4" fill="#2563eb"/>
<text x="281.25" y="238.83870967741933" text-anchor="middle" font-size="9" fill="#2563eb">252</text>
<circle cx="299.6875" cy="238.4193548387097" r="4" fill="#2563eb"/>
<text x="299.6875" y="230.4193548387097" text-anchor="middle" font-size="9" fill="#2563eb">281</text>
<circle cx="318.125" cy="232.90322580645162" r="4" fill="#2563eb"/>
<text x="318.125" y="224.90322580645162" text-anchor="middle" font-size="9" fill="#2563eb">300</text>
<circle cx="336.5625" cy="229.1290322580645" r="4" fill="#2563eb"/>
<text x="336.5625" y="221.1290322580645" text-anchor="middle" font-size="9" fill="#2563eb">313</text>
<circle cx="355.0" cy="225.93548387096774" r="4" fill="#2563eb"/>
<text x="355.0" y="217.93548387096774" text-anchor="middle" font-size="9" fill="#2563eb">324</text>
<circle cx="373.4375" cy="219.5483870967742" r="4" fill="#2563eb"/>
<text x="373.4375" y="211.5483870967742" text-anchor="middle" font-size="9" fill="#2563eb">346</text>
<circle cx="391.875" cy="199.80645161290323" r="4" fill="#2563eb"/>
<text x="391.875" y="191.80645161290323" text-anchor="middle" font-size="9" fill="#2563eb">414</text>
<circle cx="410.3125" cy="195.4516129032258" r="4" fill="#2563eb"/>
<text x="410.3125" y="187.4516129032258" text-anchor="middle" font-size="9" fill="#2563eb">429</text>
<circle cx="428.75" cy="190.80645161290323" r="4" fill="#2563eb"/>
<text x="428.75" y="182.80645161290323" text-anchor="middle" font-size="9" fill="#2563eb">445</text>
<circle cx="447.1875" cy="178.32258064516128" r="4" fill="#2563eb"/>
<text x="447.1875" y="170.32258064516128" text-anchor="middle" font-size="9" fill="#2563eb">488</text>
<circle cx="465.625" cy="160.32258064516128" r="4" fill="#2563eb"/>
<text x="465.625" y="152.32258064516128" text-anchor="middle" font-size="9" fill="#2563eb">550</text>
<circle cx="484.0625" cy="154.80645161290323" r="4" fill="#2563eb"/>
<text x="484.0625" y="146.80645161290323" text-anchor="middle" font-size="9" fill="#2563eb">569</text>
<circle cx="502.5" cy="149.5806451612903" r="4" fill="#2563eb"/>
<text x="502.5" y="141.5806451612903" text-anchor="middle" font-size="9" fill="#2563eb">587</text>
<circle cx="520.9375" cy="137.6774193548387" r="4" fill="#2563eb"/>
<text x="520.9375" y="129.6774193548387" text-anchor="middle" font-size="9" fill="#2563eb">628</text>
<circle cx="539.375" cy="109.51612903225808" r="4" fill="#2563eb"/>
<text x="539.375" y="101.51612903225808" text-anchor="middle" font-size="9" fill="#2563eb">725</text>
<circle cx="557.8125" cy="103.4193548387097" r="4" fill="#2563eb"/>
<text x="557.8125" y="95.4193548387097" text-anchor="middle" font-size="9" fill="#2563eb">746</text>
<circle cx="576.25" cy="99.35483870967741" r="4" fill="#2563eb"/>
<text x="576.25" y="91.35483870967741" text-anchor="middle" font-size="9" fill="#2563eb">760</text>
<circle cx="594.6875" cy="90.93548387096774" r="4" fill="#2563eb"/>
<text x="594.6875" y="82.93548387096774" text-anchor="middle" font-size="9" fill="#2563eb">789</text>
<circle cx="613.125" cy="70.32258064516131" r="4" fill="#2563eb"/>
<text x="613.125" y="62.32258064516131" text-anchor="middle" font-size="9" fill="#2563eb">860</text>
<circle cx="631.5625" cy="65.09677419354838" r="4" fill="#2563eb"/>
<text x="631.5625" y="57.096774193548384" text-anchor="middle" font-size="9" fill="#2563eb">878</text>
<circle cx="650.0" cy="50.0" r="4" fill="#2563eb"/>
<text x="650.0" y="42.0" text-anchor="middle" font-size="9" fill="#2563eb">930</text>
<line x1="670" y1="70" x2="690" y2="70" stroke="#2563eb" stroke-width="2"/>
<text x="695" y="74" font-size="11" fill="#2563eb">PR</text>
<polyline points="60.0,308.0967741935484 78.4375,308.0967741935484 96.875,308.0967741935484 115.3125,308.0967741935484 133.75,308.0967741935484 152.1875,307.51612903225805 170.625,307.51612903225805 189.0625,307.51612903225805 207.5,307.51612903225805 225.9375,307.2258064516129 244.375,306.93548387096774 262.8125,306.93548387096774 281.25,306.93548387096774 299.6875,306.93548387096774 318.125,306.93548387096774 336.5625,306.93548387096774 355.0,306.93548387096774 373.4375,306.93548387096774 391.875,306.93548387096774 410.3125,306.93548387096774 428.75,306.93548387096774 447.1875,306.93548387096774 465.625,306.93548387096774 484.0625,306.93548387096774 502.5,306.93548387096774 520.9375,306.93548387096774 539.375,306.93548387096774 557.8125,306.93548387096774 576.25,306.93548387096774 594.6875,306.93548387096774 613.125,306.93548387096774 631.5625,306.93548387096774 650.0,306.93548387096774" fill="none" stroke="#dc2626" stroke-width="2"/>
<circle cx="60.0" cy="308.0967741935484" r="4" fill="#dc2626"/>
<text x="60.0" y="300.0967741935484" text-anchor="middle" font-size="9" fill="#dc2626">41</text>
<circle cx="78.4375" cy="308.0967741935484" r="4" fill="#dc2626"/>
<text x="78.4375" y="300.0967741935484" text-anchor="middle" font-size="9" fill="#dc2626">41</text>
<circle cx="96.875" cy="308.0967741935484" r="4" fill="#dc2626"/>
<text x="96.875" y="300.0967741935484" text-anchor="middle" font-size="9" fill="#dc2626">41</text>
<circle cx="115.3125" cy="308.0967741935484" r="4" fill="#dc2626"/>
<text x="115.3125" y="300.0967741935484" text-anchor="middle" font-size="9" fill="#dc2626">41</text>
<circle cx="133.75" cy="308.0967741935484" r="4" fill="#dc2626"/>
<text x="133.75" y="300.0967741935484" text-anchor="middle" font-size="9" fill="#dc2626">41</text>
<circle cx="152.1875" cy="307.51612903225805" r="4" fill="#dc2626"/>
<text x="152.1875" y="299.51612903225805" text-anchor="middle" font-size="9" fill="#dc2626">43</text>
<circle cx="170.625" cy="307.51612903225805" r="4" fill="#dc2626"/>
<text x="170.625" y="299.51612903225805" text-anchor="middle" font-size="9" fill="#dc2626">43</text>
<circle cx="189.0625" cy="307.51612903225805" r="4" fill="#dc2626"/>
<text x="189.0625" y="299.51612903225805" text-anchor="middle" font-size="9" fill="#dc2626">43</text>
<circle cx="207.5" cy="307.51612903225805" r="4" fill="#dc2626"/>
<text x="207.5" y="299.51612903225805" text-anchor="middle" font-size="9" fill="#dc2626">43</text>
<circle cx="225.9375" cy="307.2258064516129" r="4" fill="#dc2626"/>
<text x="225.9375" y="299.2258064516129" text-anchor="middle" font-size="9" fill="#dc2626">44</text>
<circle cx="244.375" cy="306.93548387096774" r="4" fill="#dc2626"/>
<text x="244.375" y="298.93548387096774" text-anchor="middle" font-size="9" fill="#dc2626">45</text>
<circle cx="262.8125" cy="306.93548387096774" r="4" fill="#dc2626"/>
<text x="262.8125" y="298.93548387096774" text-anchor="middle" font-size="9" fill="#dc2626">45</text>
<circle cx="281.25" cy="306.93548387096774" r="4" fill="#dc2626"/>
<text x="281.25" y="298.93548387096774" text-anchor="middle" font-size="9" fill="#dc2626">45</text>
<circle cx="299.6875" cy="306.93548387096774" r="4" fill="#dc2626"/>
<text x="299.6875" y="298.93548387096774" text-anchor="middle" font-size="9" fill="#dc2626">45</text>
<circle cx="318.125" cy="306.93548387096774" r="4" fill="#dc2626"/>
<text x="318.125" y="298.93548387096774" text-anchor="middle" font-size="9" fill="#dc2626">45</text>
<circle cx="336.5625" cy="306.93548387096774" r="4" fill="#dc2626"/>
<text x="336.5625" y="298.93548387096774" text-anchor="middle" font-size="9" fill="#dc2626">45</text>
<circle cx="355.0" cy="306.93548387096774" r="4" fill="#dc2626"/>
<text x="355.0" y="298.93548387096774" text-anchor="middle" font-size="9" fill="#dc2626">45</text>
<circle cx="373.4375" cy="306.93548387096774" r="4" fill="#dc2626"/>
<text x="373.4375" y="298.93548387096774" text-anchor="middle" font-size="9" fill="#dc2626">45</text>
<circle cx="391.875" cy="306.93548387096774" r="4" fill="#dc2626"/>
<text x="391.875" y="298.93548387096774" text-anchor="middle" font-size="9" fill="#dc2626">45</text>
<circle cx="410.3125" cy="306.93548387096774" r="4" fill="#dc2626"/>
<text x="410.3125" y="298.93548387096774" text-anchor="middle" font-size="9" fill="#dc2626">45</text>
<circle cx="428.75" cy="306.93548387096774" r="4" fill="#dc2626"/>
<text x="428.75" y="298.93548387096774" text-anchor="middle" font-size="9" fill="#dc2626">45</text>
<circle cx="447.1875" cy="306.93548387096774" r="4" fill="#dc2626"/>
<text x="447.1875" y="298.93548387096774" text-anchor="middle" font-size="9" fill="#dc2626">45</text>
<circle cx="465.625" cy="306.93548387096774" r="4" fill="#dc2626"/>
<text x="465.625" y="298.93548387096774" text-anchor="middle" font-size="9" fill="#dc2626">45</text>
<circle cx="484.0625" cy="306.93548387096774" r="4" fill="#dc2626"/>
<text x="484.0625" y="298.93548387096774" text-anchor="middle" font-size="9" fill="#dc2626">45</text>
<circle cx="502.5" cy="306.93548387096774" r="4" fill="#dc2626"/>
<text x="502.5" y="298.93548387096774" text-anchor="middle" font-size="9" fill="#dc2626">45</text>
<circle cx="520.9375" cy="306.93548387096774" r="4" fill="#dc2626"/>
<text x="520.9375" y="298.93548387096774" text-anchor="middle" font-size="9" fill="#dc2626">45</text>
<circle cx="539.375" cy="306.93548387096774" r="4" fill="#dc2626"/>
<text x="539.375" y="298.93548387096774" text-anchor="middle" font-size="9" fill="#dc2626">45</text>
<circle cx="557.8125" cy="306.93548387096774" r="4" fill="#dc2626"/>
<text x="557.8125" y="298.93548387096774" text-anchor="middle" font-size="9" fill="#dc2626">45</text>
<circle cx="576.25" cy="306.93548387096774" r="4" fill="#dc2626"/>
<text x="576.25" y="298.93548387096774" text-anchor="middle" font-size="9" fill="#dc2626">45</text>
<circle cx="594.6875" cy="306.93548387096774" r="4" fill="#dc2626"/>
<text x="594.6875" y="298.93548387096774" text-anchor="middle" font-size="9" fill="#dc2626">45</text>
<circle cx="613.125" cy="306.93548387096774" r="4" fill="#dc2626"/>
<text x="613.125" y="298.93548387096774" text-anchor="middle" font-size="9" fill="#dc2626">45</text>
<circle cx="631.5625" cy="306.93548387096774" r="4" fill="#dc2626"/>
<text x="631.5625" y="298.93548387096774" text-anchor="middle" font-size="9" fill="#dc2626">45</text>
<circle cx="650.0" cy="306.93548387096774" r="4" fill="#dc2626"/>
<text x="650.0" y="298.93548387096774" text-anchor="middle" font-size="9" fill="#dc2626">45</text>
<line x1="670" y1="90" x2="690" y2="90" stroke="#dc2626" stroke-width="2"/>
<text x="695" y="94" font-size="11" fill="#dc2626">Issue</text>
</svg>